<?xml version="1.0" encoding="UTF-8"?>
<!DOCTYPE svg PUBLIC "-//W3C//DTD SVG 1.1//EN" "http://www.w3.org/Graphics/SVG/1.1/DTD/svg11.dtd">
<!-- Creator: CorelDRAW -->
<svg xmlns="http://www.w3.org/2000/svg" xml:space="preserve" width="30.509mm" height="16.7168mm" version="1.1" style="shape-rendering:geometricPrecision; text-rendering:geometricPrecision; image-rendering:optimizeQuality; fill-rule:evenodd; clip-rule:evenodd"
viewBox="0 0 37.42 20.5"
 xmlns:xlink="http://www.w3.org/1999/xlink"
 xmlns:xodm="http://www.corel.com/coreldraw/odm/2003">
 <defs>
  <style type="text/css">
   <![CDATA[
    .str0 {stroke:#FEFEFE;stroke-width:0.25;stroke-miterlimit:22.9256}
    .str1 {stroke:#FEFEFE;stroke-width:0.09;stroke-miterlimit:22.9256}
    .fil5 {fill:none}
    .fil2 {fill:none;fill-rule:nonzero}
    .fil0 {fill:#FEFEFE;fill-rule:nonzero}
    .fil4 {fill:#034EA2;fill-rule:nonzero}
    .fil1 {fill:#FDB913;fill-rule:nonzero}
    .fil3 {fill:white;fill-rule:nonzero}
   ]]>
  </style>
   <clipPath id="id0" style="clip-rule:nonzero">
    <path d="M20.34 1.7l2.66 0 0 3.85 -2.01 0 -0.65 1.33 0 -5.18zm9.73 3.85l0 7.15 1.31 0 0 -1.98 1.39 0 1.04 1.98 2.11 0 -1.49 -2.34c0.41,-0.22 0.73,-0.52 0.95,-0.91 0.22,-0.39 0.33,-0.86 0.33,-1.39 0,-0.8 -0.26,-1.41 -0.78,-1.85 -0.52,-0.44 -1.25,-0.66 -2.2,-0.66l-2.66 0zm-1.06 7.15l0 -1.49 -3.35 0 0 -1.35 3.35 -0.01 0 -1.48 -3.35 0 0 -1.34 3.35 0 0 -1.49 -4.94 0 0 -3.85 13.23 0 0 12.28 -7.23 0 -1.06 0 -4.94 0 0 -1.27 4.94 0zm-6 1.27l-2.66 0 0 -3.67 1.02 -2.13 0.01 4.53 1.63 0 0 1.27z"/>
   </clipPath>
   <clipPath id="id1" style="clip-rule:nonzero">
    <path d="M14.98 1.74l4.6 0 0 6.68 -0.64 1.31 -2.07 -4.18 -1.88 0 0 -3.8zm4.6 10.16l0 3.82 -4.6 0 0 -3.02 1.51 0 0 -4.53 1.84 3.82 1.2 0 0.04 -0.09z"/>
   </clipPath>
   <clipPath id="id2" style="clip-rule:nonzero">
    <path d="M8.02 0.12l5.89 0 0 5.42 -1.3 0 0 4.2c0,0.46 -0.12,0.82 -0.37,1.09 -0.25,0.27 -0.57,0.4 -0.97,0.4 -0.41,0 -0.74,-0.14 -1.01,-0.41 -0.27,-0.27 -0.4,-0.63 -0.4,-1.08l0 -4.2 -1.84 0 0 -5.42zm0.02 10.21l0 0 0 0.02 0 0 0 0.02 0 0c0,0.02 0.01,0.04 0.01,0.06l0 0 0 0.01 0 0.01 0 0c0,0.02 0.01,0.04 0.01,0.05l0 0 0 0.01 0 0.01 0 0 0 0.02 0 0.02 0 0 0 0.01 0 0.01 0 0.01 0 0.02 0 0 0 0.02 0 0.01 0 0.01 0 0 0 0.02 0 0 0 0.02 0.01 0.02 0 0 0 0.01 0 0 0 0.01 0 0.01 0 0.01 0.01 0.03 0 0 0 0.02 0 0 0.01 0.02 0.01 0.02 0 0 0.01 0.02 0 0.01 0 0.01 0 0 0 0.01 0 0 0.01 0.02 0 0 0.01 0.02 0 0 0 0.01 0 0 0.01 0.01 0 0 0.01 0.02 0 0 0 0.01c0.01,0.01 0.01,0.03 0.02,0.04l0 0 0.01 0.02 0 0 0.01 0.01 0 0.01 0 0 0.01 0.02 0 0 0 0 0.01 0.02 0 0 0.01 0.01 0 0 0.01 0.01 0 0 0.01 0.01 0 0 0.01 0.02 0 0 0.01 0.01 0 0 0.01 0.01 0.01 0.02 0 0 0.01 0.02 0 0 0.01 0.01 0.01 0.01 0 0.01 0.01 0.02 0 0 0.01 0.02 0 0 0.01 0.01 0.01 0.01 0 0.01 0.01 0.02c0.27,0.47 0.65,0.83 1.14,1.08 0.49,0.25 1.07,0.38 1.72,0.38 0.65,0 1.22,-0.13 1.71,-0.38l0.02 -0.01 0 -0 0.01 -0.01 0 -0 0.01 -0.01 0 -0 0.01 -0.01 0 -0 0.02 -0.01 0 -0 0.02 -0.01 0.01 -0 0.01 -0.01 0.01 -0.01 0.01 -0 0.01 -0.01 0 -0 0.02 -0.01 0 -0 0.02 -0.01 0 -0 0.01 -0.01c0.01,-0.01 0.02,-0.01 0.03,-0.02l0 -0 0 -0 0.02 -0.01 0.01 -0.01 0 -0 0.01 -0.01 0 -0 0.01 -0.01 0.01 -0 0.02 -0.01 0 -0 0.02 -0.01 0 -0 0.01 -0.01 0 -0 0.01 -0.01 0.01 -0c0.01,-0.01 0.02,-0.01 0.03,-0.02l0.02 -0.01 0 -0 0.01 -0.01 0 -0 0.01 -0.01 0 -0 0.01 -0.01 0 -0 0.02 -0.01 0 -0 0.01 -0.01 0.01 -0.01 0 -0 0.01 -0.01 0 -0 0.01 -0.01 0 -0 0.01 -0.01 0.01 -0.01 0 -0 0.01 -0 0.01 -0.01 0 -0c0.01,-0.01 0.02,-0.02 0.03,-0.02l0.01 -0.01 0 -0 0.01 -0.01c0.01,-0.01 0.02,-0.02 0.03,-0.03l0.01 -0.01 0 -0 0.01 -0.01c0.01,-0.01 0.03,-0.03 0.04,-0.04l0.01 -0.01 0 0c0.01,-0.01 0.02,-0.02 0.03,-0.03l0 -0c0.03,-0.03 0.06,-0.07 0.09,-0.1l0.01 -0.01c0.01,-0.01 0.02,-0.02 0.02,-0.03l0 -0 0.01 -0.01 0 -0 0.01 -0.01 0.02 -0.03 0 2.36 -5.89 0 0 -3.81 0.02 0.12zm5.52 1.72c0.01,-0.01 0.02,-0.02 0.03,-0.02l-0.03 0.02z"/>
   </clipPath>
   <clipPath id="id3">
    <path d="M8.02 0.12l5.89 0 0 5.42 -1.3 0 0 4.2c0,0.46 -0.12,0.82 -0.37,1.09 -0.25,0.27 -0.57,0.4 -0.97,0.4 -0.41,0 -0.74,-0.14 -1.01,-0.41 -0.27,-0.27 -0.4,-0.63 -0.4,-1.08l0 -4.2 -1.84 0 0 -5.42zm0.02 10.21l0 0 0 0.02 0 0 0 0.02 0 0c0,0.02 0.01,0.04 0.01,0.06l0 0 0 0.01 0 0.01 0 0c0,0.02 0.01,0.04 0.01,0.05l0 0 0 0.01 0 0.01 0 0 0 0.02 0 0.02 0 0 0 0.01 0 0.01 0 0.01 0 0.02 0 0 0 0.02 0 0.01 0 0.01 0 0 0 0.02 0 0 0 0.02 0.01 0.02 0 0 0 0.01 0 0 0 0.01 0 0.01 0 0.01 0.01 0.03 0 0 0 0.02 0 0 0.01 0.02 0.01 0.02 0 0 0.01 0.02 0 0.01 0 0.01 0 0 0 0.01 0 0 0.01 0.02 0 0 0.01 0.02 0 0 0 0.01 0 0 0.01 0.01 0 0 0.01 0.02 0 0 0 0.01c0.01,0.01 0.01,0.03 0.02,0.04l0 0 0.01 0.02 0 0 0.01 0.01 0 0.01 0 0 0.01 0.02 0 0 0 0 0.01 0.02 0 0 0.01 0.01 0 0 0.01 0.01 0 0 0.01 0.01 0 0 0.01 0.02 0 0 0.01 0.01 0 0 0.01 0.01 0.01 0.02 0 0 0.01 0.02 0 0 0.01 0.01 0.01 0.01 0 0.01 0.01 0.02 0 0 0.01 0.02 0 0 0.01 0.01 0.01 0.01 0 0.01 0.01 0.02c0.27,0.47 0.65,0.83 1.14,1.08 0.49,0.25 1.07,0.38 1.72,0.38 0.65,0 1.22,-0.13 1.71,-0.38l0.02 -0.01 0 -0 0.01 -0.01 0 -0 0.01 -0.01 0 -0 0.01 -0.01 0 -0 0.02 -0.01 0 -0 0.02 -0.01 0.01 -0 0.01 -0.01 0.01 -0.01 0.01 -0 0.01 -0.01 0 -0 0.02 -0.01 0 -0 0.02 -0.01 0 -0 0.01 -0.01c0.01,-0.01 0.02,-0.01 0.03,-0.02l0 -0 0 -0 0.02 -0.01 0.01 -0.01 0 -0 0.01 -0.01 0 -0 0.01 -0.01 0.01 -0 0.02 -0.01 0 -0 0.02 -0.01 0 -0 0.01 -0.01 0 -0 0.01 -0.01 0.01 -0c0.01,-0.01 0.02,-0.01 0.03,-0.02l0.02 -0.01 0 -0 0.01 -0.01 0 -0 0.01 -0.01 0 -0 0.01 -0.01 0 -0 0.02 -0.01 0 -0 0.01 -0.01 0.01 -0.01 0 -0 0.01 -0.01 0 -0 0.01 -0.01 0 -0 0.01 -0.01 0.01 -0.01 0 -0 0.01 -0 0.01 -0.01 0 -0c0.01,-0.01 0.02,-0.02 0.03,-0.02l0.01 -0.01 0 -0 0.01 -0.01c0.01,-0.01 0.02,-0.02 0.03,-0.03l0.01 -0.01 0 -0 0.01 -0.01c0.01,-0.01 0.03,-0.03 0.04,-0.04l0.01 -0.01 0 0c0.01,-0.01 0.02,-0.02 0.03,-0.03l0 -0c0.03,-0.03 0.06,-0.07 0.09,-0.1l0.01 -0.01c0.01,-0.01 0.02,-0.02 0.02,-0.03l0 -0 0.01 -0.01 0 -0 0.01 -0.01 0.02 -0.03 0 2.36 -5.89 0 0 -3.81 0.02 0.12zm5.52 1.72c0.01,-0.01 0.02,-0.02 0.03,-0.02l-0.03 0.02z"/>
   </clipPath>
   <clipPath id="id4" style="clip-rule:nonzero">
    <path d="M0.12 1.74l6.84 0 0 4.06c-0.17,-0.07 -0.34,-0.13 -0.53,-0.18 -0.5,-0.15 -1.01,-0.22 -1.53,-0.22 -0.57,0 -1.07,0.09 -1.5,0.27 -0.43,0.18 -0.77,0.44 -1,0.77 -0.23,0.33 -0.35,0.72 -0.35,1.16 0,0.47 0.11,0.85 0.34,1.13 0.23,0.28 0.5,0.49 0.82,0.63 0.32,0.14 0.72,0.28 1.21,0.41 0.33,0.09 0.58,0.17 0.76,0.23 0.18,0.06 0.33,0.15 0.45,0.26 0.12,0.11 0.18,0.24 0.18,0.41 0,0.2 -0.08,0.35 -0.24,0.45 -0.16,0.1 -0.38,0.15 -0.66,0.15 -0.38,0 -0.82,-0.1 -1.31,-0.31 -0.49,-0.2 -0.92,-0.47 -1.28,-0.79l-0.72 1.46c0.43,0.36 0.94,0.65 1.53,0.85 0.59,0.21 1.18,0.31 1.77,0.31 0.54,0 1.03,-0.08 1.46,-0.25 0.23,-0.09 0.43,-0.2 0.6,-0.33l0 1.79 -6.84 0 0 -12.28zm6.84 5.9l0 1.33c-0.12,-0.08 -0.24,-0.15 -0.37,-0.21 -0.32,-0.14 -0.73,-0.29 -1.23,-0.43 -0.33,-0.1 -0.58,-0.19 -0.76,-0.25 -0.17,-0.06 -0.31,-0.15 -0.43,-0.26 -0.12,-0.11 -0.17,-0.24 -0.17,-0.39 0,-0.16 0.07,-0.29 0.2,-0.37 0.13,-0.09 0.32,-0.13 0.55,-0.13 0.29,0 0.65,0.07 1.09,0.21 0.4,0.13 0.77,0.3 1.12,0.5z"/>
   </clipPath>
 </defs>
 <g id="Camada_x0020_1">
  <metadata id="CorelCorpID_0Corel-Layer"/>
  <path class="fil0" d="M20.34 1.7l2.66 0 0 3.85 -2.01 0 -0.65 1.33 0 -5.18zm9.73 3.85l0 7.15 1.31 0 0 -1.98 1.39 0 1.04 1.98 2.11 0 -1.49 -2.34c0.41,-0.22 0.73,-0.52 0.95,-0.91 0.22,-0.39 0.33,-0.86 0.33,-1.39 0,-0.8 -0.26,-1.41 -0.78,-1.85 -0.52,-0.44 -1.25,-0.66 -2.2,-0.66l-2.66 0zm-1.06 7.15l0 -1.49 -3.35 0 0 -1.35 3.35 -0.01 0 -1.48 -3.35 0 0 -1.34 3.35 0 0 -1.49 -4.94 0 0 -3.85 13.23 0 0 12.28 -7.23 0 -1.06 0 -4.94 0 0 -1.27 4.94 0zm-6 1.27l-2.66 0 0 -3.67 1.02 -2.13 0.01 4.53 1.63 0 0 1.27z"/>
  <g style="clip-path:url(#id0)">
   <g id="_1812661552448">
    <path id="_1" class="fil1" d="M40.75 28.46l16.97 0 0 12.28 -16.97 0 0 -12.28zm0 0z"/>
   </g>
  </g>
  <path class="fil2 str0" d="M20.34 1.7l2.66 0 0 3.85 -2.01 0 -0.65 1.33 0 -5.18zm9.73 3.85l0 7.15 1.31 0 0 -1.98 1.39 0 1.04 1.98 2.11 0 -1.49 -2.34c0.41,-0.22 0.73,-0.52 0.95,-0.91 0.22,-0.39 0.33,-0.86 0.33,-1.39 0,-0.8 -0.26,-1.41 -0.78,-1.85 -0.52,-0.44 -1.25,-0.66 -2.2,-0.66l-2.66 0zm-1.06 7.15l0 -1.49 -3.35 0 0 -1.35 3.35 -0.01 0 -1.48 -3.35 0 0 -1.34 3.35 0 0 -1.49 -4.94 0 0 -3.85 13.23 0 0 12.28 -7.23 0 -1.06 0 -4.94 0 0 -1.27 4.94 0zm-6 1.27l-2.66 0 0 -3.67 1.02 -2.13 0.01 4.53 1.63 0 0 1.27z"/>
  <path class="fil3 str0" d="M31.38 7.04l0 2.19 1.36 0c0.38,0 0.67,-0.09 0.88,-0.28 0.21,-0.19 0.31,-0.47 0.31,-0.83 0,-0.35 -0.1,-0.61 -0.31,-0.8 -0.21,-0.19 -0.5,-0.28 -0.88,-0.28l-1.36 0z"/>
  <path class="fil0" d="M14.98 1.74l4.6 0 0 6.68 -0.64 1.31 -2.07 -4.18 -1.88 0 0 -3.8zm4.6 10.16l0 3.82 -4.6 0 0 -3.02 1.51 0 0 -4.53 1.84 3.82 1.2 0 0.04 -0.09z"/>
  <g style="clip-path:url(#id1)">
   <g id="_1812661554176">
    <path id="_1_0" class="fil4" d="M35.39 28.51l4.6 0 0 13.97 -4.6 0 0 -13.97zm0 0z"/>
   </g>
  </g>
  <path class="fil2 str0" d="M14.98 1.74l4.6 0 0 6.68 -0.64 1.31 -2.07 -4.18 -1.88 0 0 -3.8zm4.6 10.16l0 3.82 -4.6 0 0 -3.02 1.51 0 0 -4.53 1.84 3.82 1.2 0 0.04 -0.09z"/>
  <g>
   <path class="fil0" d="M8.02 0.12l5.89 0 0 5.42 -1.3 0 0 4.2c0,0.46 -0.12,0.82 -0.37,1.09 -0.25,0.27 -0.57,0.4 -0.97,0.4 -0.41,0 -0.74,-0.14 -1.01,-0.41 -0.27,-0.27 -0.4,-0.63 -0.4,-1.08l0 -4.2 -1.84 0 0 -5.42zm0.02 10.21l0 0 0 0.02 0 0 0 0.02 0 0c0,0.02 0.01,0.04 0.01,0.06l0 0 0 0.01 0 0.01 0 0c0,0.02 0.01,0.04 0.01,0.05l0 0 0 0.01 0 0.01 0 0 0 0.02 0 0.02 0 0 0 0.01 0 0.01 0 0.01 0 0.02 0 0 0 0.02 0 0.01 0 0.01 0 0 0 0.02 0 0 0 0.02 0.01 0.02 0 0 0 0.01 0 0 0 0.01 0 0.01 0 0.01 0.01 0.03 0 0 0 0.02 0 0 0.01 0.02 0.01 0.02 0 0 0.01 0.02 0 0.01 0 0.01 0 0 0 0.01 0 0 0.01 0.02 0 0 0.01 0.02 0 0 0 0.01 0 0 0.01 0.01 0 0 0.01 0.02 0 0 0 0.01c0.01,0.01 0.01,0.03 0.02,0.04l0 0 0.01 0.02 0 0 0.01 0.01 0 0.01 0 0 0.01 0.02 0 0 0 0 0.01 0.02 0 0 0.01 0.01 0 0 0.01 0.01 0 0 0.01 0.01 0 0 0.01 0.02 0 0 0.01 0.01 0 0 0.01 0.01 0.01 0.02 0 0 0.01 0.02 0 0 0.01 0.01 0.01 0.01 0 0.01 0.01 0.02 0 0 0.01 0.02 0 0 0.01 0.01 0.01 0.01 0 0.01 0.01 0.02c0.27,0.47 0.65,0.83 1.14,1.08 0.49,0.25 1.07,0.38 1.72,0.38 0.65,0 1.22,-0.13 1.71,-0.38l0.02 -0.01 0 -0 0.01 -0.01 0 -0 0.01 -0.01 0 -0 0.01 -0.01 0 -0 0.02 -0.01 0 -0 0.02 -0.01 0.01 -0 0.01 -0.01 0.01 -0.01 0.01 -0 0.01 -0.01 0 -0 0.02 -0.01 0 -0 0.02 -0.01 0 -0 0.01 -0.01c0.01,-0.01 0.02,-0.01 0.03,-0.02l0 -0 0 -0 0.02 -0.01 0.01 -0.01 0 -0 0.01 -0.01 0 -0 0.01 -0.01 0.01 -0 0.02 -0.01 0 -0 0.02 -0.01 0 -0 0.01 -0.01 0 -0 0.01 -0.01 0.01 -0c0.01,-0.01 0.02,-0.01 0.03,-0.02l0.02 -0.01 0 -0 0.01 -0.01 0 -0 0.01 -0.01 0 -0 0.01 -0.01 0 -0 0.02 -0.01 0 -0 0.01 -0.01 0.01 -0.01 0 -0 0.01 -0.01 0 -0 0.01 -0.01 0 -0 0.01 -0.01 0.01 -0.01 0 -0 0.01 -0 0.01 -0.01 0 -0c0.01,-0.01 0.02,-0.02 0.03,-0.02l0.01 -0.01 0 -0 0.01 -0.01c0.01,-0.01 0.02,-0.02 0.03,-0.03l0.01 -0.01 0 -0 0.01 -0.01c0.01,-0.01 0.03,-0.03 0.04,-0.04l0.01 -0.01 0 0c0.01,-0.01 0.02,-0.02 0.03,-0.03l0 -0c0.03,-0.03 0.06,-0.07 0.09,-0.1l0.01 -0.01c0.01,-0.01 0.02,-0.02 0.02,-0.03l0 -0 0.01 -0.01 0 -0 0.01 -0.01 0.02 -0.03 0 2.36 -5.89 0 0 -3.81 0.02 0.12zm5.52 1.72c0.01,-0.01 0.02,-0.02 0.03,-0.02l-0.03 0.02z"/>
  </g>
  <g style="clip-path:url(#id2)">
  </g>
  <path id="_1_1" class="fil2 str0" d="M8.02 0.12l5.89 0 0 5.42 -1.3 0 0 4.2c0,0.46 -0.12,0.82 -0.37,1.09 -0.25,0.27 -0.57,0.4 -0.97,0.4 -0.41,0 -0.74,-0.14 -1.01,-0.41 -0.27,-0.27 -0.4,-0.63 -0.4,-1.08l0 -4.2 -1.84 0 0 -5.42zm0.02 10.21l0 0 0 0.02 0 0 0 0.02 0 0c0,0.02 0.01,0.04 0.01,0.06l0 0 0 0.01 0 0.01 0 0c0,0.02 0.01,0.04 0.01,0.05l0 0 0 0.01 0 0.01 0 0 0 0.02 0 0.02 0 0 0 0.01 0 0.01 0 0.01 0 0.02 0 0 0 0.02 0 0.01 0 0.01 0 0 0 0.02 0 0 0 0.02 0.01 0.02 0 0 0 0.01 0 0 0 0.01 0 0.01 0 0.01 0.01 0.03 0 0 0 0.02 0 0 0.01 0.02 0.01 0.02 0 0 0.01 0.02 0 0.01 0 0.01 0 0 0 0.01 0 0 0.01 0.02 0 0 0.01 0.02 0 0 0 0.01 0 0 0.01 0.01 0 0 0.01 0.02 0 0 0 0.01c0.01,0.01 0.01,0.03 0.02,0.04l0 0 0.01 0.02 0 0 0.01 0.01 0 0.01 0 0 0.01 0.02 0 0 0 0 0.01 0.02 0 0 0.01 0.01 0 0 0.01 0.01 0 0 0.01 0.01 0 0 0.01 0.02 0 0 0.01 0.01 0 0 0.01 0.01 0.01 0.02 0 0 0.01 0.02 0 0 0.01 0.01 0.01 0.01 0 0.01 0.01 0.02 0 0 0.01 0.02 0 0 0.01 0.01 0.01 0.01 0 0.01 0.01 0.02c0.27,0.47 0.65,0.83 1.14,1.08 0.49,0.25 1.07,0.38 1.72,0.38 0.65,0 1.22,-0.13 1.71,-0.38l0.02 -0.01 0 -0 0.01 -0.01 0 -0 0.01 -0.01 0 -0 0.01 -0.01 0 -0 0.02 -0.01 0 -0 0.02 -0.01 0.01 -0 0.01 -0.01 0.01 -0.01 0.01 -0 0.01 -0.01 0 -0 0.02 -0.01 0 -0 0.02 -0.01 0 -0 0.01 -0.01c0.01,-0.01 0.02,-0.01 0.03,-0.02l0 -0 0 -0 0.02 -0.01 0.01 -0.01 0 -0 0.01 -0.01 0 -0 0.01 -0.01 0.01 -0 0.02 -0.01 0 -0 0.02 -0.01 0 -0 0.01 -0.01 0 -0 0.01 -0.01 0.01 -0c0.01,-0.01 0.02,-0.01 0.03,-0.02l0.02 -0.01 0 -0 0.01 -0.01 0 -0 0.01 -0.01 0 -0 0.01 -0.01 0 -0 0.02 -0.01 0 -0 0.01 -0.01 0.01 -0.01 0 -0 0.01 -0.01 0 -0 0.01 -0.01 0 -0 0.01 -0.01 0.01 -0.01 0 -0 0.01 -0 0.01 -0.01 0 -0c0.01,-0.01 0.02,-0.02 0.03,-0.02l0.01 -0.01 0 -0 0.01 -0.01c0.01,-0.01 0.02,-0.02 0.03,-0.03l0.01 -0.01 0 -0 0.01 -0.01c0.01,-0.01 0.03,-0.03 0.04,-0.04l0.01 -0.01 0 0c0.01,-0.01 0.02,-0.02 0.03,-0.03l0 -0c0.03,-0.03 0.06,-0.07 0.09,-0.1l0.01 -0.01c0.01,-0.01 0.02,-0.02 0.02,-0.03l0 -0 0.01 -0.01 0 -0 0.01 -0.01 0.02 -0.03 0 2.36 -5.89 0 0 -3.81m5.53 1.84c0.01,-0.01 0.02,-0.02 0.03,-0.02"/>
  <g style="clip-path:url(#id3)">
   <path id="_2" class="fil5 str1" d="M8.02 0.12l5.89 13.9m0 -13.9l-5.89 13.9"/>
  </g>
  <path class="fil0" d="M0.12 1.74l6.84 0 0 4.06c-0.17,-0.07 -0.34,-0.13 -0.53,-0.18 -0.5,-0.15 -1.01,-0.22 -1.53,-0.22 -0.57,0 -1.07,0.09 -1.5,0.27 -0.43,0.18 -0.77,0.44 -1,0.77 -0.23,0.33 -0.35,0.72 -0.35,1.16 0,0.47 0.11,0.85 0.34,1.13 0.23,0.28 0.5,0.49 0.82,0.63 0.32,0.14 0.72,0.28 1.21,0.41 0.33,0.09 0.58,0.17 0.76,0.23 0.18,0.06 0.33,0.15 0.45,0.26 0.12,0.11 0.18,0.24 0.18,0.41 0,0.2 -0.08,0.35 -0.24,0.45 -0.16,0.1 -0.38,0.15 -0.66,0.15 -0.38,0 -0.82,-0.1 -1.31,-0.31 -0.49,-0.2 -0.92,-0.47 -1.28,-0.79l-0.72 1.46c0.43,0.36 0.94,0.65 1.53,0.85 0.59,0.21 1.18,0.31 1.77,0.31 0.54,0 1.03,-0.08 1.46,-0.25 0.23,-0.09 0.43,-0.2 0.6,-0.33l0 1.79 -6.84 0 0 -12.28zm6.84 5.9l0 1.33c-0.12,-0.08 -0.24,-0.15 -0.37,-0.21 -0.32,-0.14 -0.73,-0.29 -1.23,-0.43 -0.33,-0.1 -0.58,-0.19 -0.76,-0.25 -0.17,-0.06 -0.31,-0.15 -0.43,-0.26 -0.12,-0.11 -0.17,-0.24 -0.17,-0.39 0,-0.16 0.07,-0.29 0.2,-0.37 0.13,-0.09 0.32,-0.13 0.55,-0.13 0.29,0 0.65,0.07 1.09,0.21 0.4,0.13 0.77,0.3 1.12,0.5z"/>
  <g style="clip-path:url(#id4)">
   <g id="_1812661558112">
    <path id="_1_2" class="fil4" d="M20.54 28.51l6.84 0 0 12.28 -6.84 0 0 -12.28zm0 0z"/>
   </g>
  </g>
  <path class="fil2 str0" d="M0.12 1.74l6.84 0 0 4.06c-0.17,-0.07 -0.34,-0.13 -0.53,-0.18 -0.5,-0.15 -1.01,-0.22 -1.53,-0.22 -0.57,0 -1.07,0.09 -1.5,0.27 -0.43,0.18 -0.77,0.44 -1,0.77 -0.23,0.33 -0.35,0.72 -0.35,1.16 0,0.47 0.11,0.85 0.34,1.13 0.23,0.28 0.5,0.49 0.82,0.63 0.32,0.14 0.72,0.28 1.21,0.41 0.33,0.09 0.58,0.17 0.76,0.23 0.18,0.06 0.33,0.15 0.45,0.26 0.12,0.11 0.18,0.24 0.18,0.41 0,0.2 -0.08,0.35 -0.24,0.45 -0.16,0.1 -0.38,0.15 -0.66,0.15 -0.38,0 -0.82,-0.1 -1.31,-0.31 -0.49,-0.2 -0.92,-0.47 -1.28,-0.79l-0.72 1.46c0.43,0.36 0.94,0.65 1.53,0.85 0.59,0.21 1.18,0.31 1.77,0.31 0.54,0 1.03,-0.08 1.46,-0.25 0.23,-0.09 0.43,-0.2 0.6,-0.33l0 1.79 -6.84 0 0 -12.28zm6.84 5.9l0 1.33c-0.12,-0.08 -0.24,-0.15 -0.37,-0.21 -0.32,-0.14 -0.73,-0.29 -1.23,-0.43 -0.33,-0.1 -0.58,-0.19 -0.76,-0.25 -0.17,-0.06 -0.31,-0.15 -0.43,-0.26 -0.12,-0.11 -0.17,-0.24 -0.17,-0.39 0,-0.16 0.07,-0.29 0.2,-0.37 0.13,-0.09 0.32,-0.13 0.55,-0.13 0.29,0 0.65,0.07 1.09,0.21 0.4,0.13 0.77,0.3 1.12,0.5z"/>
  <path class="fil0 str0" d="M0.88 18.07c-0.09,0 -0.17,-0.01 -0.25,-0.04 -0.08,-0.03 -0.14,-0.07 -0.19,-0.11l0.05 -0.1c0.04,0.04 0.1,0.08 0.17,0.1 0.07,0.03 0.14,0.04 0.22,0.04 0.11,0 0.19,-0.02 0.24,-0.06 0.05,-0.04 0.08,-0.09 0.08,-0.15 0,-0.05 -0.01,-0.09 -0.04,-0.11 -0.03,-0.03 -0.06,-0.05 -0.11,-0.07 -0.04,-0.02 -0.1,-0.03 -0.17,-0.05 -0.09,-0.02 -0.16,-0.04 -0.21,-0.07 -0.05,-0.02 -0.1,-0.05 -0.14,-0.1 -0.04,-0.04 -0.06,-0.1 -0.06,-0.17 0,-0.06 0.02,-0.12 0.05,-0.16 0.03,-0.05 0.08,-0.09 0.15,-0.12 0.07,-0.03 0.15,-0.04 0.24,-0.04 0.07,0 0.13,0.01 0.2,0.03 0.06,0.02 0.12,0.04 0.17,0.08l-0.04 0.1c-0.05,-0.03 -0.1,-0.06 -0.16,-0.07 -0.06,-0.02 -0.11,-0.03 -0.17,-0.03 -0.1,0 -0.18,0.02 -0.24,0.06 -0.05,0.04 -0.08,0.09 -0.08,0.16 0,0.05 0.01,0.09 0.04,0.12 0.03,0.03 0.06,0.05 0.11,0.07 0.04,0.02 0.1,0.03 0.18,0.05 0.09,0.02 0.16,0.04 0.21,0.06 0.05,0.02 0.1,0.05 0.14,0.1 0.04,0.04 0.06,0.1 0.06,0.17 0,0.06 -0.02,0.12 -0.05,0.16 -0.03,0.05 -0.08,0.09 -0.15,0.12 -0.07,0.03 -0.15,0.04 -0.25,0.04zm0 0z"/>
  <path class="fil0 str0" d="M2.38 17.17l0 0.89 -0.12 0 0 -0.16c-0.03,0.05 -0.08,0.1 -0.13,0.13 -0.06,0.03 -0.12,0.04 -0.19,0.04 -0.12,0 -0.21,-0.03 -0.28,-0.1 -0.07,-0.06 -0.1,-0.16 -0.1,-0.29l0 -0.52 0.12 0 0 0.51c0,0.09 0.02,0.17 0.07,0.21 0.05,0.05 0.11,0.07 0.2,0.07 0.09,0 0.17,-0.03 0.22,-0.08 0.05,-0.06 0.08,-0.14 0.08,-0.24l0 -0.47 0.12 0zm0 0z"/>
  <path class="fil0 str0" d="M3.17 17.16c0.08,0 0.16,0.02 0.23,0.06 0.07,0.04 0.12,0.09 0.16,0.16 0.04,0.07 0.06,0.15 0.06,0.24 0,0.09 -0.02,0.17 -0.06,0.24 -0.04,0.07 -0.09,0.12 -0.16,0.16 -0.07,0.04 -0.14,0.06 -0.23,0.06 -0.07,0 -0.14,-0.01 -0.2,-0.04 -0.06,-0.03 -0.11,-0.07 -0.14,-0.13l0 0.5 -0.12 0 0 -1.22 0.12 0 0 0.18c0.04,-0.06 0.08,-0.1 0.14,-0.13 0.06,-0.03 0.13,-0.05 0.2,-0.05zm-0.01 0.8c0.06,0 0.12,-0.01 0.17,-0.04 0.05,-0.03 0.09,-0.07 0.12,-0.12 0.03,-0.05 0.04,-0.11 0.04,-0.18 0,-0.07 -0.01,-0.13 -0.04,-0.18 -0.03,-0.05 -0.07,-0.09 -0.12,-0.12 -0.05,-0.03 -0.11,-0.04 -0.17,-0.04 -0.06,0 -0.12,0.02 -0.17,0.04 -0.05,0.03 -0.09,0.07 -0.12,0.12 -0.03,0.05 -0.04,0.11 -0.04,0.18 0,0.07 0.01,0.13 0.04,0.18 0.03,0.05 0.07,0.09 0.12,0.12 0.05,0.03 0.11,0.04 0.17,0.04zm0 0z"/>
  <path class="fil0 str0" d="M4.65 17.65l-0.75 0c0.01,0.09 0.04,0.17 0.11,0.23 0.06,0.06 0.15,0.08 0.24,0.08 0.06,0 0.11,-0.01 0.15,-0.03 0.05,-0.02 0.09,-0.05 0.12,-0.09l0.07 0.08c-0.04,0.05 -0.09,0.08 -0.15,0.11 -0.06,0.02 -0.13,0.04 -0.2,0.04 -0.09,0 -0.17,-0.02 -0.24,-0.06 -0.07,-0.04 -0.13,-0.09 -0.16,-0.16 -0.04,-0.07 -0.06,-0.15 -0.06,-0.24 0,-0.09 0.02,-0.16 0.06,-0.23 0.04,-0.07 0.09,-0.12 0.16,-0.16 0.07,-0.04 0.14,-0.06 0.22,-0.06 0.08,0 0.16,0.02 0.22,0.06 0.07,0.04 0.12,0.09 0.16,0.16 0.04,0.07 0.06,0.15 0.06,0.23l-0 0.04zm-0.43 -0.39c-0.09,0 -0.16,0.03 -0.22,0.08 -0.06,0.06 -0.09,0.13 -0.1,0.21l0.64 0c-0.01,-0.09 -0.04,-0.16 -0.1,-0.21 -0.06,-0.06 -0.13,-0.08 -0.22,-0.08zm0 0z"/>
  <path class="fil0 str0" d="M5.01 17.34c0.03,-0.06 0.07,-0.1 0.12,-0.13 0.06,-0.03 0.13,-0.05 0.21,-0.05l0 0.12 -0.03 -0c-0.09,0 -0.17,0.03 -0.22,0.09 -0.05,0.06 -0.08,0.14 -0.08,0.24l0 0.46 -0.12 0 0 -0.89 0.12 0 0 0.17zm0 0z"/>
  <path class="fil0 str0" d="M5.58 17.17l0.12 0 0 0.89 -0.12 0 0 -0.89zm0.06 -0.2c-0.02,0 -0.05,-0.01 -0.06,-0.03 -0.02,-0.02 -0.03,-0.04 -0.03,-0.06 0,-0.02 0.01,-0.04 0.03,-0.06 0.02,-0.02 0.04,-0.03 0.06,-0.03 0.02,0 0.05,0.01 0.06,0.03 0.02,0.02 0.03,0.04 0.03,0.06 0,0.03 -0.01,0.05 -0.03,0.06 -0.02,0.02 -0.04,0.03 -0.06,0.03zm0 0z"/>
  <path class="fil0 str0" d="M6.49 17.16c0.11,0 0.2,0.03 0.27,0.1 0.07,0.07 0.1,0.16 0.1,0.28l0 0.52 -0.12 0 0 -0.51c0,-0.09 -0.02,-0.16 -0.07,-0.21 -0.05,-0.05 -0.11,-0.07 -0.2,-0.07 -0.1,0 -0.17,0.03 -0.23,0.09 -0.06,0.06 -0.08,0.14 -0.08,0.24l0 0.47 -0.12 0 0 -0.89 0.12 0 0 0.16c0.03,-0.05 0.08,-0.1 0.14,-0.13 0.06,-0.03 0.13,-0.04 0.2,-0.04zm0 0z"/>
  <path class="fil0 str0" d="M7.66 18.01c-0.02,0.02 -0.05,0.04 -0.08,0.05 -0.03,0.01 -0.07,0.02 -0.1,0.02 -0.08,0 -0.15,-0.02 -0.2,-0.07 -0.04,-0.05 -0.07,-0.11 -0.07,-0.19l0 -0.54 -0.16 0 0 -0.1 0.16 0 0 -0.2 0.12 0 0 0.2 0.27 0 0 0.1 -0.27 0 0 0.53c0,0.05 0.01,0.09 0.04,0.12 0.03,0.03 0.06,0.04 0.12,0.04 0.03,0 0.05,-0 0.07,-0.01 0.02,-0.01 0.04,-0.02 0.06,-0.03l0.04 0.09zm0 0z"/>
  <path class="fil0 str0" d="M8.66 17.65l-0.75 0c0.01,0.09 0.04,0.17 0.11,0.23 0.06,0.06 0.15,0.08 0.24,0.08 0.06,0 0.11,-0.01 0.15,-0.03 0.05,-0.02 0.09,-0.05 0.12,-0.09l0.07 0.08c-0.04,0.05 -0.09,0.08 -0.15,0.11 -0.06,0.02 -0.13,0.04 -0.2,0.04 -0.09,0 -0.17,-0.02 -0.24,-0.06 -0.07,-0.04 -0.13,-0.09 -0.16,-0.16 -0.04,-0.07 -0.06,-0.15 -0.06,-0.24 0,-0.09 0.02,-0.16 0.06,-0.23 0.04,-0.07 0.09,-0.12 0.16,-0.16 0.07,-0.04 0.14,-0.06 0.22,-0.06 0.08,0 0.16,0.02 0.22,0.06 0.07,0.04 0.12,0.09 0.16,0.16 0.04,0.07 0.06,0.15 0.06,0.23l-0 0.04zm-0.43 -0.39c-0.09,0 -0.16,0.03 -0.22,0.08 -0.06,0.06 -0.09,0.13 -0.1,0.21l0.64 0c-0.01,-0.09 -0.04,-0.16 -0.1,-0.21 -0.06,-0.06 -0.13,-0.08 -0.22,-0.08zm0 0z"/>
  <path class="fil0 str0" d="M9.36 17.16c0.11,0 0.2,0.03 0.27,0.1 0.07,0.07 0.1,0.16 0.1,0.28l0 0.52 -0.12 0 0 -0.51c0,-0.09 -0.02,-0.16 -0.07,-0.21 -0.05,-0.05 -0.11,-0.07 -0.2,-0.07 -0.1,0 -0.17,0.03 -0.23,0.09 -0.06,0.06 -0.08,0.14 -0.08,0.24l0 0.47 -0.12 0 0 -0.89 0.12 0 0 0.16c0.03,-0.05 0.08,-0.1 0.14,-0.13 0.06,-0.03 0.13,-0.04 0.2,-0.04zm0 0z"/>
  <path class="fil0 str0" d="M10.87 16.8l0 1.26 -0.12 0 0 -0.18c-0.04,0.06 -0.08,0.11 -0.14,0.14 -0.06,0.03 -0.13,0.05 -0.2,0.05 -0.08,0 -0.16,-0.02 -0.23,-0.06 -0.07,-0.04 -0.12,-0.09 -0.16,-0.16 -0.04,-0.07 -0.06,-0.15 -0.06,-0.24 0,-0.09 0.02,-0.17 0.06,-0.24 0.04,-0.07 0.09,-0.12 0.16,-0.16 0.07,-0.04 0.14,-0.06 0.23,-0.06 0.07,0 0.14,0.02 0.2,0.04 0.06,0.03 0.11,0.07 0.14,0.13l0 -0.54 0.12 0zm-0.45 1.16c0.06,0 0.12,-0.01 0.17,-0.04 0.05,-0.03 0.09,-0.07 0.12,-0.12 0.03,-0.05 0.04,-0.11 0.04,-0.18 0,-0.07 -0.01,-0.13 -0.04,-0.18 -0.03,-0.05 -0.07,-0.09 -0.12,-0.12 -0.05,-0.03 -0.11,-0.04 -0.17,-0.04 -0.06,0 -0.12,0.01 -0.17,0.04 -0.05,0.03 -0.09,0.07 -0.12,0.12 -0.03,0.05 -0.04,0.11 -0.04,0.18 0,0.07 0.01,0.13 0.04,0.18 0.03,0.05 0.07,0.09 0.12,0.12 0.05,0.03 0.11,0.04 0.17,0.04zm0 0z"/>
  <path class="fil0 str0" d="M11.99 17.65l-0.75 0c0.01,0.09 0.04,0.17 0.11,0.23 0.06,0.06 0.15,0.08 0.24,0.08 0.06,0 0.11,-0.01 0.15,-0.03 0.05,-0.02 0.09,-0.05 0.12,-0.09l0.07 0.08c-0.04,0.05 -0.09,0.08 -0.15,0.11 -0.06,0.02 -0.13,0.04 -0.2,0.04 -0.09,0 -0.17,-0.02 -0.24,-0.06 -0.07,-0.04 -0.13,-0.09 -0.16,-0.16 -0.04,-0.07 -0.06,-0.15 -0.06,-0.24 0,-0.09 0.02,-0.16 0.06,-0.23 0.04,-0.07 0.09,-0.12 0.16,-0.16 0.07,-0.04 0.14,-0.06 0.22,-0.06 0.08,0 0.16,0.02 0.22,0.06 0.07,0.04 0.12,0.09 0.16,0.16 0.04,0.07 0.06,0.15 0.06,0.23l-0 0.04zm-0.43 -0.39c-0.09,0 -0.16,0.03 -0.22,0.08 -0.06,0.06 -0.09,0.13 -0.1,0.21l0.64 0c-0.01,-0.09 -0.04,-0.16 -0.1,-0.21 -0.06,-0.06 -0.13,-0.08 -0.22,-0.08zm0.17 -0.24l-0.17 -0.14 -0.17 0.14 -0.11 0 0.22 -0.21 0.12 0 0.22 0.21 -0.11 0zm0 0z"/>
  <path class="fil0 str0" d="M12.69 17.16c0.11,0 0.2,0.03 0.27,0.1 0.07,0.07 0.1,0.16 0.1,0.28l0 0.52 -0.12 0 0 -0.51c0,-0.09 -0.02,-0.16 -0.07,-0.21 -0.05,-0.05 -0.11,-0.07 -0.2,-0.07 -0.1,0 -0.17,0.03 -0.23,0.09 -0.06,0.06 -0.08,0.14 -0.08,0.24l0 0.47 -0.12 0 0 -0.89 0.12 0 0 0.16c0.03,-0.05 0.08,-0.1 0.14,-0.13 0.06,-0.03 0.13,-0.04 0.2,-0.04zm0 0z"/>
  <path class="fil0 str0" d="M13.76 18.07c-0.09,0 -0.17,-0.02 -0.24,-0.06 -0.07,-0.04 -0.12,-0.09 -0.16,-0.16 -0.04,-0.07 -0.06,-0.15 -0.06,-0.24 0,-0.09 0.02,-0.16 0.06,-0.23 0.04,-0.07 0.09,-0.12 0.16,-0.16 0.07,-0.04 0.15,-0.06 0.24,-0.06 0.08,0 0.15,0.02 0.21,0.04 0.06,0.03 0.11,0.07 0.14,0.13l-0.09 0.06c-0.03,-0.04 -0.07,-0.08 -0.11,-0.1 -0.04,-0.02 -0.09,-0.03 -0.15,-0.03 -0.07,0 -0.12,0.01 -0.17,0.04 -0.05,0.03 -0.09,0.07 -0.12,0.12 -0.03,0.05 -0.04,0.11 -0.04,0.18 0,0.07 0.01,0.13 0.04,0.18 0.03,0.05 0.07,0.09 0.12,0.12 0.05,0.03 0.11,0.04 0.17,0.04 0.05,0 0.1,-0.01 0.15,-0.03 0.05,-0.02 0.08,-0.05 0.11,-0.1l0.09 0.06c-0.04,0.06 -0.08,0.1 -0.15,0.13 -0.06,0.03 -0.13,0.04 -0.2,0.04zm0 0z"/>
  <path class="fil0 str0" d="M14.35 17.17l0.12 0 0 0.89 -0.12 0 0 -0.89zm0.06 -0.2c-0.02,0 -0.05,-0.01 -0.06,-0.03 -0.02,-0.02 -0.03,-0.04 -0.03,-0.06 0,-0.02 0.01,-0.04 0.03,-0.06 0.02,-0.02 0.04,-0.03 0.06,-0.03 0.02,0 0.05,0.01 0.06,0.03 0.02,0.02 0.03,0.04 0.03,0.06 0,0.03 -0.01,0.05 -0.03,0.06 -0.02,0.02 -0.04,0.03 -0.06,0.03zm0 0z"/>
  <path class="fil0 str0" d="M15.12 17.16c0.12,0 0.21,0.03 0.27,0.09 0.06,0.06 0.09,0.14 0.09,0.26l0 0.56 -0.12 0 0 -0.14c-0.03,0.05 -0.07,0.08 -0.12,0.11 -0.05,0.03 -0.11,0.04 -0.19,0.04 -0.1,0 -0.18,-0.02 -0.24,-0.07 -0.06,-0.05 -0.09,-0.11 -0.09,-0.19 0,-0.08 0.03,-0.14 0.08,-0.18 0.06,-0.05 0.14,-0.07 0.26,-0.07l0.28 0 0 -0.05c0,-0.08 -0.02,-0.13 -0.07,-0.17 -0.04,-0.04 -0.11,-0.06 -0.19,-0.06 -0.06,0 -0.11,0.01 -0.16,0.03 -0.05,0.02 -0.1,0.04 -0.13,0.08l-0.05 -0.09c0.05,-0.04 0.1,-0.07 0.16,-0.09 0.06,-0.02 0.13,-0.03 0.2,-0.03zm-0.04 0.81c0.07,0 0.13,-0.02 0.17,-0.05 0.05,-0.03 0.09,-0.08 0.11,-0.14l0 -0.15 -0.28 0c-0.15,0 -0.23,0.05 -0.23,0.16 0,0.05 0.02,0.09 0.06,0.12 0.04,0.03 0.09,0.04 0.17,0.04zm0 0z"/>
  <path class="fil0 str0" d="M17.07 16.8l0 1.26 -0.12 0 0 -0.18c-0.04,0.06 -0.08,0.11 -0.14,0.14 -0.06,0.03 -0.13,0.05 -0.2,0.05 -0.08,0 -0.16,-0.02 -0.23,-0.06 -0.07,-0.04 -0.12,-0.09 -0.16,-0.16 -0.04,-0.07 -0.06,-0.15 -0.06,-0.24 0,-0.09 0.02,-0.17 0.06,-0.24 0.04,-0.07 0.09,-0.12 0.16,-0.16 0.07,-0.04 0.14,-0.06 0.23,-0.06 0.07,0 0.14,0.02 0.2,0.04 0.06,0.03 0.11,0.07 0.14,0.13l0 -0.54 0.12 0zm-0.45 1.16c0.06,0 0.12,-0.01 0.17,-0.04 0.05,-0.03 0.09,-0.07 0.12,-0.12 0.03,-0.05 0.04,-0.11 0.04,-0.18 0,-0.07 -0.01,-0.13 -0.04,-0.18 -0.03,-0.05 -0.07,-0.09 -0.12,-0.12 -0.05,-0.03 -0.11,-0.04 -0.17,-0.04 -0.06,0 -0.12,0.01 -0.17,0.04 -0.05,0.03 -0.09,0.07 -0.12,0.12 -0.03,0.05 -0.04,0.11 -0.04,0.18 0,0.07 0.01,0.13 0.04,0.18 0.03,0.05 0.07,0.09 0.12,0.12 0.05,0.03 0.11,0.04 0.17,0.04zm0 0z"/>
  <path class="fil0 str0" d="M18.18 17.65l-0.75 0c0.01,0.09 0.04,0.17 0.11,0.23 0.06,0.06 0.15,0.08 0.24,0.08 0.06,0 0.11,-0.01 0.15,-0.03 0.05,-0.02 0.09,-0.05 0.12,-0.09l0.07 0.08c-0.04,0.05 -0.09,0.08 -0.15,0.11 -0.06,0.02 -0.13,0.04 -0.2,0.04 -0.09,0 -0.17,-0.02 -0.24,-0.06 -0.07,-0.04 -0.13,-0.09 -0.16,-0.16 -0.04,-0.07 -0.06,-0.15 -0.06,-0.24 0,-0.09 0.02,-0.16 0.06,-0.23 0.04,-0.07 0.09,-0.12 0.16,-0.16 0.07,-0.04 0.14,-0.06 0.22,-0.06 0.08,0 0.16,0.02 0.22,0.06 0.07,0.04 0.12,0.09 0.16,0.16 0.04,0.07 0.06,0.15 0.06,0.23l-0 0.04zm-0.43 -0.39c-0.09,0 -0.16,0.03 -0.22,0.08 -0.06,0.06 -0.09,0.13 -0.1,0.21l0.64 0c-0.01,-0.09 -0.04,-0.16 -0.1,-0.21 -0.06,-0.06 -0.13,-0.08 -0.22,-0.08zm0 0z"/>
  <path class="fil0 str0" d="M20.14 16.87l0 1.19 -0.12 0 0 -0.95 -0.47 0.8 -0.06 0 -0.47 -0.8 0 0.95 -0.12 0 0 -1.19 0.1 0 0.52 0.88 0.51 -0.88 0.1 0zm0 0z"/>
  <path class="fil0 str0" d="M20.5 17.17l0.12 0 0 0.89 -0.12 0 0 -0.89zm0.06 -0.2c-0.02,0 -0.05,-0.01 -0.06,-0.03 -0.02,-0.02 -0.03,-0.04 -0.03,-0.06 0,-0.02 0.01,-0.04 0.03,-0.06 0.02,-0.02 0.04,-0.03 0.06,-0.03 0.02,0 0.05,0.01 0.06,0.03 0.02,0.02 0.03,0.04 0.03,0.06 0,0.03 -0.01,0.05 -0.03,0.06 -0.02,0.02 -0.04,0.03 -0.06,0.03zm0 0z"/>
  <path class="fil0 str0" d="M21.42 17.16c0.11,0 0.2,0.03 0.27,0.1 0.07,0.07 0.1,0.16 0.1,0.28l0 0.52 -0.12 0 0 -0.51c0,-0.09 -0.02,-0.16 -0.07,-0.21 -0.05,-0.05 -0.11,-0.07 -0.2,-0.07 -0.1,0 -0.17,0.03 -0.23,0.09 -0.06,0.06 -0.08,0.14 -0.08,0.24l0 0.47 -0.12 0 0 -0.89 0.12 0 0 0.16c0.03,-0.05 0.08,-0.1 0.14,-0.13 0.06,-0.03 0.13,-0.04 0.2,-0.04zm0 0z"/>
  <path class="fil0 str0" d="M22.89 17.65l-0.75 0c0.01,0.09 0.04,0.17 0.11,0.23 0.06,0.06 0.15,0.08 0.24,0.08 0.06,0 0.11,-0.01 0.15,-0.03 0.05,-0.02 0.09,-0.05 0.12,-0.09l0.07 0.08c-0.04,0.05 -0.09,0.08 -0.15,0.11 -0.06,0.02 -0.13,0.04 -0.2,0.04 -0.09,0 -0.17,-0.02 -0.24,-0.06 -0.07,-0.04 -0.13,-0.09 -0.16,-0.16 -0.04,-0.07 -0.06,-0.15 -0.06,-0.24 0,-0.09 0.02,-0.16 0.06,-0.23 0.04,-0.07 0.09,-0.12 0.16,-0.16 0.07,-0.04 0.14,-0.06 0.22,-0.06 0.08,0 0.16,0.02 0.22,0.06 0.07,0.04 0.12,0.09 0.16,0.16 0.04,0.07 0.06,0.15 0.06,0.23l-0 0.04zm-0.43 -0.39c-0.09,0 -0.16,0.03 -0.22,0.08 -0.06,0.06 -0.09,0.13 -0.1,0.21l0.64 0c-0.01,-0.09 -0.04,-0.16 -0.1,-0.21 -0.06,-0.06 -0.13,-0.08 -0.22,-0.08zm0 0z"/>
  <path class="fil0 str0" d="M23.26 17.34c0.03,-0.06 0.07,-0.1 0.12,-0.13 0.06,-0.03 0.13,-0.05 0.21,-0.05l0 0.12 -0.03 -0c-0.09,0 -0.17,0.03 -0.22,0.09 -0.05,0.06 -0.08,0.14 -0.08,0.24l0 0.46 -0.12 0 0 -0.89 0.12 0 0 0.17zm0 0z"/>
  <path class="fil0 str0" d="M24.13 17.16c0.12,0 0.21,0.03 0.27,0.09 0.06,0.06 0.09,0.14 0.09,0.26l0 0.56 -0.12 0 0 -0.14c-0.03,0.05 -0.07,0.08 -0.12,0.11 -0.05,0.03 -0.11,0.04 -0.19,0.04 -0.1,0 -0.18,-0.02 -0.24,-0.07 -0.06,-0.05 -0.09,-0.11 -0.09,-0.19 0,-0.08 0.03,-0.14 0.08,-0.18 0.06,-0.05 0.14,-0.07 0.26,-0.07l0.28 0 0 -0.05c0,-0.08 -0.02,-0.13 -0.07,-0.17 -0.04,-0.04 -0.11,-0.06 -0.19,-0.06 -0.06,0 -0.11,0.01 -0.16,0.03 -0.05,0.02 -0.1,0.04 -0.13,0.08l-0.05 -0.09c0.05,-0.04 0.1,-0.07 0.16,-0.09 0.06,-0.02 0.13,-0.03 0.2,-0.03zm-0.04 0.81c0.07,0 0.13,-0.02 0.17,-0.05 0.05,-0.03 0.09,-0.08 0.11,-0.14l0 -0.15 -0.28 0c-0.15,0 -0.23,0.05 -0.23,0.16 0,0.05 0.02,0.09 0.06,0.12 0.04,0.03 0.09,0.04 0.17,0.04zm0 0z"/>
  <path class="fil0 str0" d="M25.2 18.07c-0.09,0 -0.17,-0.02 -0.24,-0.06 -0.07,-0.04 -0.12,-0.09 -0.16,-0.16 -0.04,-0.07 -0.06,-0.15 -0.06,-0.24 0,-0.09 0.02,-0.16 0.06,-0.23 0.04,-0.07 0.09,-0.12 0.16,-0.16 0.07,-0.04 0.15,-0.06 0.24,-0.06 0.08,0 0.15,0.02 0.21,0.04 0.06,0.03 0.11,0.07 0.14,0.13l-0.09 0.06c-0.03,-0.04 -0.07,-0.08 -0.11,-0.1 -0.04,-0.02 -0.09,-0.03 -0.15,-0.03 -0.07,0 -0.12,0.01 -0.17,0.04 -0.05,0.03 -0.09,0.07 -0.12,0.12 -0.03,0.05 -0.04,0.11 -0.04,0.18 0,0.07 0.01,0.13 0.04,0.18 0.03,0.05 0.07,0.09 0.12,0.12 0.05,0.03 0.11,0.04 0.17,0.04 0.05,0 0.1,-0.01 0.15,-0.03 0.05,-0.02 0.08,-0.05 0.11,-0.1l0.09 0.06c-0.04,0.06 -0.08,0.1 -0.15,0.13 -0.06,0.03 -0.13,0.04 -0.2,0.04zm-0.07 0.37c-0.06,0 -0.1,-0.01 -0.14,-0.04l0.03 -0.06c0.03,0.02 0.07,0.03 0.11,0.03 0.03,0 0.06,-0.01 0.08,-0.02 0.02,-0.01 0.03,-0.03 0.03,-0.06 0,-0.02 -0.01,-0.04 -0.03,-0.06 -0.02,-0.01 -0.04,-0.02 -0.08,-0.02l-0.04 0 0.04 -0.15 0.07 0 -0.03 0.1c0.05,0.01 0.08,0.02 0.11,0.04 0.03,0.02 0.04,0.06 0.04,0.09 0,0.05 -0.02,0.08 -0.05,0.11 -0.04,0.03 -0.08,0.04 -0.14,0.04zm0 0z"/>
  <path class="fil0 str0" d="M26.1 17.16c0.12,0 0.21,0.03 0.27,0.09 0.06,0.06 0.09,0.14 0.09,0.26l0 0.56 -0.12 0 0 -0.14c-0.03,0.05 -0.07,0.08 -0.12,0.11 -0.05,0.03 -0.11,0.04 -0.19,0.04 -0.1,0 -0.18,-0.02 -0.24,-0.07 -0.06,-0.05 -0.09,-0.11 -0.09,-0.19 0,-0.08 0.03,-0.14 0.08,-0.18 0.06,-0.05 0.14,-0.07 0.26,-0.07l0.28 0 0 -0.05c0,-0.08 -0.02,-0.13 -0.07,-0.17 -0.04,-0.04 -0.11,-0.06 -0.19,-0.06 -0.06,0 -0.11,0.01 -0.16,0.03 -0.05,0.02 -0.1,0.04 -0.13,0.08l-0.05 -0.09c0.05,-0.04 0.1,-0.07 0.16,-0.09 0.06,-0.02 0.13,-0.03 0.2,-0.03zm-0.04 0.81c0.07,0 0.13,-0.02 0.17,-0.05 0.05,-0.03 0.09,-0.08 0.11,-0.14l0 -0.15 -0.28 0c-0.15,0 -0.23,0.05 -0.23,0.16 0,0.05 0.02,0.09 0.06,0.12 0.04,0.03 0.09,0.04 0.17,0.04zm0.16 -0.96c-0.03,0 -0.05,-0.01 -0.07,-0.02 -0.02,-0.01 -0.04,-0.03 -0.07,-0.05 -0.02,-0.02 -0.04,-0.03 -0.05,-0.04 -0.01,-0.01 -0.02,-0.01 -0.04,-0.01 -0.03,0 -0.05,0.01 -0.06,0.03 -0.02,0.02 -0.02,0.05 -0.03,0.08l-0.07 0c0,-0.06 0.02,-0.1 0.04,-0.14 0.03,-0.03 0.06,-0.05 0.11,-0.05 0.03,0 0.05,0.01 0.07,0.02 0.02,0.01 0.04,0.03 0.07,0.05 0.02,0.02 0.03,0.03 0.04,0.04 0.01,0.01 0.03,0.01 0.04,0.01 0.02,0 0.04,-0.01 0.06,-0.03 0.02,-0.02 0.02,-0.04 0.03,-0.08l0.07 0c-0,0.06 -0.02,0.1 -0.04,0.13 -0.03,0.03 -0.06,0.05 -0.11,0.05zm0 0z"/>
  <path class="fil0 str0" d="M27.15 18.07c-0.09,0 -0.16,-0.02 -0.23,-0.06 -0.07,-0.04 -0.12,-0.09 -0.16,-0.16 -0.04,-0.07 -0.06,-0.15 -0.06,-0.24 0,-0.09 0.02,-0.16 0.06,-0.23 0.04,-0.07 0.09,-0.12 0.16,-0.16 0.07,-0.04 0.15,-0.06 0.23,-0.06 0.09,0 0.16,0.02 0.23,0.06 0.07,0.04 0.12,0.09 0.16,0.16 0.04,0.07 0.06,0.15 0.06,0.23 0,0.09 -0.02,0.17 -0.06,0.24 -0.04,0.07 -0.09,0.12 -0.16,0.16 -0.07,0.04 -0.15,0.06 -0.23,0.06zm0 -0.11c0.06,0 0.12,-0.01 0.17,-0.04 0.05,-0.03 0.09,-0.07 0.12,-0.12 0.03,-0.05 0.04,-0.11 0.04,-0.18 0,-0.07 -0.01,-0.13 -0.04,-0.18 -0.03,-0.05 -0.07,-0.09 -0.12,-0.12 -0.05,-0.03 -0.11,-0.04 -0.17,-0.04 -0.06,0 -0.12,0.01 -0.17,0.04 -0.05,0.03 -0.09,0.07 -0.12,0.12 -0.03,0.05 -0.04,0.11 -0.04,0.18 0,0.07 0.01,0.13 0.04,0.18 0.03,0.05 0.07,0.09 0.12,0.12 0.05,0.03 0.11,0.04 0.17,0.04zm0 0z"/>
  <path class="fil0 str0" d="M29.08 17.65l-0.75 0c0.01,0.09 0.04,0.17 0.11,0.23 0.06,0.06 0.15,0.08 0.24,0.08 0.06,0 0.11,-0.01 0.15,-0.03 0.05,-0.02 0.09,-0.05 0.12,-0.09l0.07 0.08c-0.04,0.05 -0.09,0.08 -0.15,0.11 -0.06,0.02 -0.13,0.04 -0.2,0.04 -0.09,0 -0.17,-0.02 -0.24,-0.06 -0.07,-0.04 -0.13,-0.09 -0.16,-0.16 -0.04,-0.07 -0.06,-0.15 -0.06,-0.24 0,-0.09 0.02,-0.16 0.06,-0.23 0.04,-0.07 0.09,-0.12 0.16,-0.16 0.07,-0.04 0.14,-0.06 0.22,-0.06 0.08,0 0.16,0.02 0.22,0.06 0.07,0.04 0.12,0.09 0.16,0.16 0.04,0.07 0.06,0.15 0.06,0.23l-0 0.04zm-0.43 -0.39c-0.09,0 -0.16,0.03 -0.22,0.08 -0.06,0.06 -0.09,0.13 -0.1,0.21l0.64 0c-0.01,-0.09 -0.04,-0.16 -0.1,-0.21 -0.06,-0.06 -0.13,-0.08 -0.22,-0.08zm0 0z"/>
  <path class="fil0 str0" d="M30.64 17.96l0 0.11 -0.84 0 0 -1.19 0.82 0 0 0.11 -0.69 0 0 0.42 0.62 0 0 0.11 -0.62 0 0 0.44 0.72 0zm0 0z"/>
  <path class="fil0 str0" d="M31.37 17.16c0.11,0 0.2,0.03 0.27,0.1 0.07,0.07 0.1,0.16 0.1,0.28l0 0.52 -0.12 0 0 -0.51c0,-0.09 -0.02,-0.16 -0.07,-0.21 -0.05,-0.05 -0.11,-0.07 -0.2,-0.07 -0.1,0 -0.17,0.03 -0.23,0.09 -0.06,0.06 -0.08,0.14 -0.08,0.24l0 0.47 -0.12 0 0 -0.89 0.12 0 0 0.16c0.03,-0.05 0.08,-0.1 0.14,-0.13 0.06,-0.03 0.13,-0.04 0.2,-0.04zm0 0z"/>
  <path class="fil0 str0" d="M32.84 17.65l-0.75 0c0.01,0.09 0.04,0.17 0.11,0.23 0.06,0.06 0.15,0.08 0.24,0.08 0.06,0 0.11,-0.01 0.15,-0.03 0.05,-0.02 0.09,-0.05 0.12,-0.09l0.07 0.08c-0.04,0.05 -0.09,0.08 -0.15,0.11 -0.06,0.02 -0.13,0.04 -0.2,0.04 -0.09,0 -0.17,-0.02 -0.24,-0.06 -0.07,-0.04 -0.13,-0.09 -0.16,-0.16 -0.04,-0.07 -0.06,-0.15 -0.06,-0.24 0,-0.09 0.02,-0.16 0.06,-0.23 0.04,-0.07 0.09,-0.12 0.16,-0.16 0.07,-0.04 0.14,-0.06 0.22,-0.06 0.08,0 0.16,0.02 0.22,0.06 0.07,0.04 0.12,0.09 0.16,0.16 0.04,0.07 0.06,0.15 0.06,0.23l-0 0.04zm-0.43 -0.39c-0.09,0 -0.16,0.03 -0.22,0.08 -0.06,0.06 -0.09,0.13 -0.1,0.21l0.64 0c-0.01,-0.09 -0.04,-0.16 -0.1,-0.21 -0.06,-0.06 -0.13,-0.08 -0.22,-0.08zm0 0z"/>
  <path class="fil0 str0" d="M33.21 17.34c0.03,-0.06 0.07,-0.1 0.12,-0.13 0.06,-0.03 0.13,-0.05 0.21,-0.05l0 0.12 -0.03 -0c-0.09,0 -0.17,0.03 -0.22,0.09 -0.05,0.06 -0.08,0.14 -0.08,0.24l0 0.46 -0.12 0 0 -0.89 0.12 0 0 0.17zm0 0z"/>
  <path class="fil0 str0" d="M34.6 17.17l0 0.79c0,0.15 -0.04,0.26 -0.11,0.34 -0.07,0.07 -0.19,0.11 -0.34,0.11 -0.08,0 -0.16,-0.01 -0.24,-0.04 -0.07,-0.02 -0.14,-0.06 -0.18,-0.1l0.06 -0.09c0.04,0.04 0.1,0.07 0.16,0.09 0.06,0.02 0.13,0.03 0.2,0.03 0.11,0 0.2,-0.03 0.25,-0.08 0.05,-0.05 0.08,-0.13 0.08,-0.24l0 -0.12c-0.04,0.06 -0.09,0.1 -0.15,0.13 -0.06,0.03 -0.13,0.04 -0.2,0.04 -0.08,0 -0.16,-0.02 -0.23,-0.05 -0.07,-0.04 -0.12,-0.09 -0.16,-0.16 -0.04,-0.07 -0.06,-0.14 -0.06,-0.23 0,-0.08 0.02,-0.16 0.06,-0.22 0.04,-0.07 0.09,-0.12 0.16,-0.15 0.07,-0.04 0.14,-0.05 0.23,-0.05 0.08,0 0.14,0.02 0.2,0.05 0.06,0.03 0.11,0.07 0.15,0.13l0 -0.17 0.12 0zm-0.46 0.75c0.06,0 0.12,-0.01 0.17,-0.04 0.05,-0.03 0.09,-0.07 0.12,-0.12 0.03,-0.05 0.04,-0.11 0.04,-0.17 0,-0.06 -0.02,-0.12 -0.04,-0.17 -0.03,-0.05 -0.07,-0.09 -0.12,-0.12 -0.05,-0.03 -0.11,-0.04 -0.18,-0.04 -0.07,0 -0.12,0.01 -0.17,0.04 -0.05,0.03 -0.09,0.07 -0.12,0.12 -0.03,0.05 -0.04,0.11 -0.04,0.17 0,0.06 0.01,0.12 0.04,0.17 0.03,0.05 0.07,0.09 0.12,0.12 0.05,0.03 0.11,0.04 0.17,0.04zm0 0z"/>
  <path class="fil0 str0" d="M34.94 17.17l0.12 0 0 0.89 -0.12 0 0 -0.89zm0.06 -0.2c-0.02,0 -0.05,-0.01 -0.06,-0.03 -0.02,-0.02 -0.03,-0.04 -0.03,-0.06 0,-0.02 0.01,-0.04 0.03,-0.06 0.02,-0.02 0.04,-0.03 0.06,-0.03 0.02,0 0.05,0.01 0.06,0.03 0.02,0.02 0.03,0.04 0.03,0.06 0,0.03 -0.01,0.05 -0.03,0.06 -0.02,0.02 -0.04,0.03 -0.06,0.03zm0 0z"/>
  <path class="fil0 str0" d="M35.71 17.16c0.12,0 0.21,0.03 0.27,0.09 0.06,0.06 0.09,0.14 0.09,0.26l0 0.56 -0.12 0 0 -0.14c-0.03,0.05 -0.07,0.08 -0.12,0.11 -0.05,0.03 -0.11,0.04 -0.19,0.04 -0.1,0 -0.18,-0.02 -0.24,-0.07 -0.06,-0.05 -0.09,-0.11 -0.09,-0.19 0,-0.08 0.03,-0.14 0.08,-0.18 0.06,-0.05 0.14,-0.07 0.26,-0.07l0.28 0 0 -0.05c0,-0.08 -0.02,-0.13 -0.07,-0.17 -0.04,-0.04 -0.11,-0.06 -0.19,-0.06 -0.06,0 -0.11,0.01 -0.16,0.03 -0.05,0.02 -0.1,0.04 -0.13,0.08l-0.05 -0.09c0.05,-0.04 0.1,-0.07 0.16,-0.09 0.06,-0.02 0.13,-0.03 0.2,-0.03zm-0.04 0.81c0.07,0 0.13,-0.02 0.17,-0.05 0.05,-0.03 0.09,-0.08 0.11,-0.14l0 -0.15 -0.28 0c-0.15,0 -0.23,0.05 -0.23,0.16 0,0.05 0.02,0.09 0.06,0.12 0.04,0.03 0.09,0.04 0.17,0.04zm0 0z"/>
  <path class="fil0 str0" d="M36.64 18.07c-0.07,0 -0.14,-0.01 -0.21,-0.03 -0.07,-0.02 -0.12,-0.05 -0.16,-0.08l0.05 -0.09c0.04,0.03 0.08,0.05 0.14,0.07 0.06,0.02 0.12,0.03 0.18,0.03 0.08,0 0.14,-0.01 0.18,-0.04 0.04,-0.03 0.06,-0.06 0.06,-0.11 0,-0.03 -0.01,-0.06 -0.03,-0.08 -0.02,-0.02 -0.05,-0.03 -0.08,-0.04 -0.03,-0.01 -0.08,-0.02 -0.13,-0.03 -0.07,-0.01 -0.13,-0.03 -0.18,-0.04 -0.04,-0.01 -0.08,-0.04 -0.11,-0.07 -0.03,-0.03 -0.05,-0.08 -0.05,-0.14 0,-0.07 0.03,-0.14 0.09,-0.18 0.06,-0.05 0.15,-0.07 0.26,-0.07 0.06,0 0.12,0.01 0.17,0.02 0.06,0.02 0.11,0.04 0.14,0.06l-0.05 0.1c-0.07,-0.05 -0.16,-0.08 -0.26,-0.08 -0.08,0 -0.14,0.01 -0.17,0.04 -0.04,0.03 -0.06,0.06 -0.06,0.11 0,0.03 0.01,0.06 0.03,0.08 0.02,0.02 0.05,0.04 0.08,0.04 0.03,0.01 0.08,0.02 0.14,0.03 0.07,0.01 0.13,0.03 0.17,0.04 0.04,0.01 0.08,0.04 0.11,0.07 0.03,0.03 0.05,0.08 0.05,0.14 0,0.08 -0.03,0.14 -0.1,0.19 -0.07,0.05 -0.16,0.07 -0.27,0.07zm0 0z"/>
  <path class="fil0 str0" d="M14.89 20.33l-0.27 -0.38c-0.03,0 -0.06,0 -0.09,0l-0.32 0 0 0.38 -0.13 0 0 -1.19 0.45 0c0.15,0 0.27,0.04 0.36,0.11 0.09,0.07 0.13,0.17 0.13,0.3 0,0.09 -0.02,0.17 -0.07,0.24 -0.05,0.06 -0.11,0.11 -0.2,0.14l0.29 0.41 -0.14 0zm-0.37 -0.48c0.12,0 0.21,-0.03 0.27,-0.08 0.06,-0.05 0.09,-0.13 0.09,-0.22 0,-0.1 -0.03,-0.17 -0.09,-0.22 -0.06,-0.05 -0.15,-0.08 -0.27,-0.08l-0.32 0 0 0.6 0.32 0zm0 0z"/>
  <path class="fil0 str0" d="M16.06 19.92l-0.75 0c0.01,0.09 0.04,0.17 0.11,0.23 0.06,0.06 0.15,0.08 0.24,0.08 0.06,0 0.11,-0.01 0.15,-0.03 0.05,-0.02 0.09,-0.05 0.12,-0.09l0.07 0.08c-0.04,0.05 -0.09,0.08 -0.15,0.11 -0.06,0.02 -0.13,0.04 -0.2,0.04 -0.09,0 -0.17,-0.02 -0.24,-0.06 -0.07,-0.04 -0.13,-0.09 -0.16,-0.16 -0.04,-0.07 -0.06,-0.15 -0.06,-0.24 0,-0.09 0.02,-0.16 0.06,-0.23 0.04,-0.07 0.09,-0.12 0.16,-0.16 0.07,-0.04 0.14,-0.06 0.22,-0.06 0.08,0 0.16,0.02 0.22,0.06 0.07,0.04 0.12,0.09 0.16,0.16 0.04,0.07 0.06,0.15 0.06,0.23l-0 0.04zm-0.43 -0.39c-0.09,0 -0.16,0.03 -0.22,0.08 -0.06,0.06 -0.09,0.13 -0.1,0.21l0.64 0c-0.01,-0.09 -0.04,-0.16 -0.1,-0.21 -0.06,-0.06 -0.13,-0.08 -0.22,-0.08zm0 0z"/>
  <path class="fil0 str0" d="M16.77 19.43c0.11,0 0.2,0.03 0.27,0.1 0.07,0.07 0.1,0.16 0.1,0.28l0 0.52 -0.12 0 0 -0.51c0,-0.09 -0.02,-0.16 -0.07,-0.21 -0.05,-0.05 -0.11,-0.07 -0.2,-0.07 -0.1,0 -0.17,0.03 -0.23,0.09 -0.06,0.06 -0.08,0.14 -0.08,0.24l0 0.47 -0.12 0 0 -0.89 0.12 0 0 0.16c0.03,-0.05 0.08,-0.1 0.14,-0.13 0.06,-0.03 0.13,-0.04 0.2,-0.04zm0 0z"/>
  <path class="fil0 str0" d="M17.83 20.34c-0.09,0 -0.16,-0.02 -0.23,-0.06 -0.07,-0.04 -0.12,-0.09 -0.16,-0.16 -0.04,-0.07 -0.06,-0.15 -0.06,-0.24 0,-0.09 0.02,-0.16 0.06,-0.23 0.04,-0.07 0.09,-0.12 0.16,-0.16 0.07,-0.04 0.15,-0.06 0.23,-0.06 0.09,0 0.16,0.02 0.23,0.06 0.07,0.04 0.12,0.09 0.16,0.16 0.04,0.07 0.06,0.15 0.06,0.23 0,0.09 -0.02,0.17 -0.06,0.24 -0.04,0.07 -0.09,0.12 -0.16,0.16 -0.07,0.04 -0.15,0.06 -0.23,0.06zm0 -0.11c0.06,0 0.12,-0.01 0.17,-0.04 0.05,-0.03 0.09,-0.07 0.12,-0.12 0.03,-0.05 0.04,-0.11 0.04,-0.18 0,-0.07 -0.01,-0.13 -0.04,-0.18 -0.03,-0.05 -0.07,-0.09 -0.12,-0.12 -0.05,-0.03 -0.11,-0.04 -0.17,-0.04 -0.06,0 -0.12,0.01 -0.17,0.04 -0.05,0.03 -0.09,0.07 -0.12,0.12 -0.03,0.05 -0.04,0.11 -0.04,0.18 0,0.07 0.01,0.13 0.04,0.18 0.03,0.05 0.07,0.09 0.12,0.12 0.05,0.03 0.11,0.04 0.17,0.04zm0 0z"/>
  <path class="fil0 str0" d="M19.28 19.44l-0.4 0.89 -0.12 0 -0.4 -0.89 0.13 0 0.33 0.76 0.34 -0.76 0.12 0zm0 0z"/>
  <path class="fil0 str0" d="M19.77 19.43c0.12,0 0.21,0.03 0.27,0.09 0.06,0.06 0.09,0.14 0.09,0.26l0 0.56 -0.12 0 0 -0.14c-0.03,0.05 -0.07,0.08 -0.12,0.11 -0.05,0.03 -0.11,0.04 -0.19,0.04 -0.1,0 -0.18,-0.02 -0.24,-0.07 -0.06,-0.05 -0.09,-0.11 -0.09,-0.19 0,-0.08 0.03,-0.14 0.08,-0.18 0.06,-0.05 0.14,-0.07 0.26,-0.07l0.28 0 0 -0.05c0,-0.08 -0.02,-0.13 -0.07,-0.17 -0.04,-0.04 -0.11,-0.06 -0.19,-0.06 -0.06,0 -0.11,0.01 -0.16,0.03 -0.05,0.02 -0.1,0.04 -0.13,0.08l-0.05 -0.09c0.05,-0.04 0.1,-0.07 0.16,-0.09 0.06,-0.02 0.13,-0.03 0.2,-0.03zm-0.04 0.81c0.07,0 0.13,-0.02 0.17,-0.05 0.05,-0.03 0.09,-0.08 0.11,-0.14l0 -0.15 -0.28 0c-0.15,0 -0.23,0.05 -0.23,0.16 0,0.05 0.02,0.09 0.06,0.12 0.04,0.03 0.09,0.04 0.17,0.04zm0.17 -1.16l0.16 0 -0.28 0.21 -0.12 0 0.23 -0.21zm0 0z"/>
  <path class="fil0 str0" d="M21.21 19.44l-0.4 0.89 -0.12 0 -0.4 -0.89 0.13 0 0.33 0.76 0.34 -0.76 0.12 0zm0 0z"/>
  <path class="fil0 str0" d="M22.16 19.92l-0.75 0c0.01,0.09 0.04,0.17 0.11,0.23 0.06,0.06 0.15,0.08 0.24,0.08 0.06,0 0.11,-0.01 0.15,-0.03 0.05,-0.02 0.09,-0.05 0.12,-0.09l0.07 0.08c-0.04,0.05 -0.09,0.08 -0.15,0.11 -0.06,0.02 -0.13,0.04 -0.2,0.04 -0.09,0 -0.17,-0.02 -0.24,-0.06 -0.07,-0.04 -0.13,-0.09 -0.16,-0.16 -0.04,-0.07 -0.06,-0.15 -0.06,-0.24 0,-0.09 0.02,-0.16 0.06,-0.23 0.04,-0.07 0.09,-0.12 0.16,-0.16 0.07,-0.04 0.14,-0.06 0.22,-0.06 0.08,0 0.16,0.02 0.22,0.06 0.07,0.04 0.12,0.09 0.16,0.16 0.04,0.07 0.06,0.15 0.06,0.23l-0 0.04zm-0.43 -0.39c-0.09,0 -0.16,0.03 -0.22,0.08 -0.06,0.06 -0.09,0.13 -0.1,0.21l0.64 0c-0.01,-0.09 -0.04,-0.16 -0.1,-0.21 -0.06,-0.06 -0.13,-0.08 -0.22,-0.08zm0 0z"/>
  <path class="fil0 str0" d="M22.41 19.44l0.12 0 0 0.89 -0.12 0 0 -0.89zm0.06 -0.2c-0.02,0 -0.05,-0.01 -0.06,-0.03 -0.02,-0.02 -0.03,-0.04 -0.03,-0.06 0,-0.02 0.01,-0.04 0.03,-0.06 0.02,-0.02 0.04,-0.03 0.06,-0.03 0.02,0 0.05,0.01 0.06,0.03 0.02,0.02 0.03,0.04 0.03,0.06 0,0.03 -0.01,0.05 -0.03,0.06 -0.02,0.02 -0.04,0.03 -0.06,0.03zm0 0z"/>
  <path class="fil0 str0" d="M23.1 20.34c-0.07,0 -0.14,-0.01 -0.21,-0.03 -0.07,-0.02 -0.12,-0.05 -0.16,-0.08l0.05 -0.09c0.04,0.03 0.08,0.05 0.14,0.07 0.06,0.02 0.12,0.03 0.18,0.03 0.08,0 0.14,-0.01 0.18,-0.04 0.04,-0.03 0.06,-0.06 0.06,-0.11 0,-0.03 -0.01,-0.06 -0.03,-0.08 -0.02,-0.02 -0.05,-0.03 -0.08,-0.04 -0.03,-0.01 -0.08,-0.02 -0.13,-0.03 -0.07,-0.01 -0.13,-0.03 -0.18,-0.04 -0.04,-0.01 -0.08,-0.04 -0.11,-0.07 -0.03,-0.03 -0.05,-0.08 -0.05,-0.14 0,-0.07 0.03,-0.14 0.09,-0.18 0.06,-0.05 0.15,-0.07 0.26,-0.07 0.06,0 0.12,0.01 0.17,0.02 0.06,0.02 0.11,0.04 0.14,0.06l-0.05 0.1c-0.07,-0.05 -0.16,-0.08 -0.26,-0.08 -0.08,0 -0.14,0.01 -0.17,0.04 -0.04,0.03 -0.06,0.06 -0.06,0.11 0,0.03 0.01,0.06 0.03,0.08 0.02,0.02 0.05,0.04 0.08,0.04 0.03,0.01 0.08,0.02 0.14,0.03 0.07,0.01 0.13,0.03 0.17,0.04 0.04,0.01 0.08,0.04 0.11,0.07 0.03,0.03 0.05,0.08 0.05,0.14 0,0.08 -0.03,0.14 -0.1,0.19 -0.07,0.05 -0.16,0.07 -0.27,0.07zm0 0z"/>
 </g>
</svg>
