<svg width="121" height="40" viewBox="0 0 121 40" fill="none" xmlns="http://www.w3.org/2000/svg">
<path d="M23.8671 17.7572C23.6348 17.7572 23.4127 17.7223 23.2008 17.6523C22.9888 17.5794 22.8219 17.486 22.7 17.3723L22.8611 17.031C22.9772 17.133 23.1253 17.2176 23.3053 17.2847C23.4853 17.3518 23.6726 17.3854 23.8671 17.3854C24.0442 17.3854 24.1879 17.3649 24.2982 17.3241C24.4085 17.2832 24.4898 17.2278 24.5421 17.1579C24.5944 17.0849 24.6205 17.0032 24.6205 16.9128C24.6205 16.8078 24.5856 16.7232 24.516 16.6591C24.4492 16.5949 24.3606 16.5438 24.2503 16.5059C24.1429 16.4651 24.0239 16.43 23.8932 16.4009C23.7626 16.3717 23.6305 16.3382 23.4969 16.3002C23.3662 16.2595 23.2458 16.2084 23.1354 16.1471C23.0281 16.0859 22.9409 16.0042 22.8742 15.9021C22.8074 15.7971 22.774 15.6629 22.774 15.4996C22.774 15.3421 22.8146 15.1977 22.8959 15.0664C22.9802 14.9323 23.1079 14.8258 23.2792 14.747C23.4534 14.6654 23.674 14.6245 23.9411 14.6245C24.1182 14.6245 24.2938 14.6478 24.4681 14.6946C24.6423 14.7412 24.7932 14.8083 24.921 14.8958L24.7773 15.2458C24.6466 15.1583 24.5087 15.0956 24.3635 15.0576C24.2184 15.0168 24.0776 14.9964 23.9411 14.9964C23.7698 14.9964 23.629 15.0183 23.5187 15.0621C23.4084 15.1058 23.3271 15.1641 23.2748 15.2371C23.2255 15.31 23.2008 15.3916 23.2008 15.4821C23.2008 15.59 23.2341 15.6761 23.3009 15.7402C23.3707 15.8044 23.4592 15.8554 23.5666 15.8934C23.6769 15.9313 23.7974 15.9663 23.9281 15.9983C24.0587 16.0275 24.1894 16.0611 24.32 16.099C24.4535 16.1369 24.574 16.1865 24.6815 16.2478C24.7918 16.309 24.8803 16.3907 24.9471 16.4928C25.0138 16.5949 25.0472 16.7262 25.0472 16.8866C25.0472 17.0412 25.0052 17.1855 24.921 17.3198C24.8368 17.451 24.7061 17.5575 24.5291 17.6391C24.3548 17.7179 24.1341 17.7572 23.8671 17.7572Z" fill="white"/>
<path d="M34.103 27.2553C33.8707 27.2553 33.6486 27.2203 33.4367 27.1503C33.2247 27.0774 33.0578 26.984 32.9358 26.8703L33.097 26.529C33.2131 26.6311 33.3611 26.7157 33.5411 26.7828C33.7211 26.8498 33.9085 26.8834 34.103 26.8834C34.2801 26.8834 34.4237 26.8629 34.5341 26.8221C34.6444 26.7813 34.7257 26.7259 34.778 26.6559C34.8302 26.5829 34.8564 26.5013 34.8564 26.4108C34.8564 26.3059 34.8215 26.2213 34.7518 26.1571C34.685 26.0929 34.5965 26.0418 34.4862 26.004C34.3788 25.9631 34.2597 25.9281 34.129 25.8989C33.9984 25.8697 33.8663 25.8362 33.7328 25.7983C33.6021 25.7575 33.4817 25.7064 33.3713 25.6451C33.2639 25.5839 33.1768 25.5022 33.1101 25.4002C33.0433 25.2951 33.0099 25.1609 33.0099 24.9976C33.0099 24.8401 33.0505 24.6957 33.1318 24.5644C33.216 24.4303 33.3437 24.3238 33.5151 24.2451C33.6892 24.1634 33.9099 24.1225 34.177 24.1225C34.3541 24.1225 34.5297 24.1459 34.7039 24.1926C34.8781 24.2392 35.0291 24.3063 35.1568 24.3938L35.0131 24.7438C34.8825 24.6563 34.7446 24.5936 34.5994 24.5557C34.4542 24.5149 34.3135 24.4945 34.177 24.4945C34.0057 24.4945 33.8649 24.5163 33.7545 24.5601C33.6443 24.6038 33.563 24.6621 33.5106 24.7351C33.4613 24.808 33.4367 24.8896 33.4367 24.9801C33.4367 25.0881 33.47 25.1741 33.5368 25.2383C33.6065 25.3025 33.6951 25.3534 33.8024 25.3914C33.9128 25.4293 34.0332 25.4643 34.1639 25.4964C34.2945 25.5255 34.4252 25.5591 34.5558 25.597C34.6894 25.6349 34.8099 25.6845 34.9174 25.7458C35.0276 25.807 35.1162 25.8887 35.183 25.9908C35.2497 26.0929 35.2831 26.2242 35.2831 26.3846C35.2831 26.5392 35.241 26.6836 35.1568 26.8178C35.0726 26.949 34.942 27.0555 34.7649 27.1372C34.5907 27.2159 34.37 27.2553 34.103 27.2553Z" fill="white"/>
<path d="M26.0797 15.9809H27.6475V16.3528H26.0797V15.9809ZM26.119 17.3416H27.8958V17.7223H25.6835V14.6595H27.8348V15.0402H26.119V17.3416Z" fill="white"/>
<path d="M29.9597 17.7572C29.7275 17.7572 29.5127 17.7194 29.3152 17.6435C29.1207 17.5647 28.9508 17.4553 28.8057 17.3153C28.6634 17.1724 28.5517 17.0062 28.4704 16.8165C28.3891 16.627 28.3484 16.4184 28.3484 16.1909C28.3484 15.9634 28.3891 15.7548 28.4704 15.5652C28.5517 15.3756 28.6649 15.2108 28.81 15.0708C28.9552 14.9278 29.1251 14.8185 29.3196 14.7426C29.517 14.6639 29.7318 14.6245 29.9641 14.6245C30.1993 14.6245 30.4156 14.6654 30.613 14.747C30.8133 14.8258 30.9832 14.9439 31.1225 15.1014L30.8394 15.3771C30.7233 15.2546 30.5927 15.1641 30.4475 15.1058C30.3023 15.0445 30.147 15.0139 29.9815 15.0139C29.8102 15.0139 29.6505 15.0431 29.5025 15.1014C29.3573 15.1598 29.231 15.2414 29.1236 15.3464C29.0162 15.4515 28.932 15.5768 28.871 15.7227C28.813 15.8656 28.7839 16.0217 28.7839 16.1909C28.7839 16.3601 28.813 16.5176 28.871 16.6634C28.932 16.8063 29.0162 16.9304 29.1236 17.0353C29.231 17.1403 29.3573 17.222 29.5025 17.2803C29.6505 17.3387 29.8102 17.3678 29.9815 17.3678C30.147 17.3678 30.3023 17.3387 30.4475 17.2803C30.5927 17.2191 30.7233 17.1258 30.8394 17.0003L31.1225 17.276C30.9832 17.4335 30.8133 17.553 30.613 17.6348C30.4156 17.7164 30.1978 17.7572 29.9597 17.7572Z" fill="white"/>
<path d="M31.7437 17.7223V14.6595H32.9326C33.1998 14.6595 33.4277 14.7018 33.6163 14.7864C33.8051 14.871 33.9503 14.9935 34.0519 15.1539C34.1535 15.3144 34.2042 15.5054 34.2042 15.7271C34.2042 15.9488 34.1535 16.1399 34.0519 16.3003C33.9503 16.4578 33.8051 16.5788 33.6163 16.6634C33.4277 16.748 33.1998 16.7903 32.9326 16.7903H31.9833L32.1792 16.589V17.7223H31.7437ZM33.7818 17.7223L33.0067 16.6109H33.4726L34.2565 17.7223H33.7818ZM32.1792 16.6328L31.9833 16.4184H32.9196C33.1983 16.4184 33.4088 16.3586 33.551 16.2391C33.6962 16.1165 33.7688 15.9459 33.7688 15.7271C33.7688 15.5083 33.6962 15.3392 33.551 15.2195C33.4088 15.1 33.1983 15.0402 32.9196 15.0402H31.9833L32.1792 14.8214V16.6328Z" fill="white"/>
<path d="M35.503 15.9809H37.0708V16.3528H35.503V15.9809ZM35.5422 17.3416H37.319V17.7223H35.1066V14.6595H37.258V15.0402H35.5422V17.3416Z" fill="white"/>
<path d="M38.6294 17.7223V15.0402H37.5843V14.6595H40.1058V15.0402H39.0606V17.7223H38.6294Z" fill="white"/>
<path d="M40.1604 17.7223L41.5409 14.6595H41.972L43.3569 17.7223H42.8996L41.6673 14.9045H41.8414L40.609 17.7223H40.1604ZM40.7483 16.9566L40.8659 16.6066H42.5818L42.7081 16.9566H40.7483Z" fill="white"/>
<path d="M43.8117 17.7223V14.6595H45.0006C45.2676 14.6595 45.4955 14.7018 45.6843 14.7864C45.873 14.871 46.0181 14.9935 46.1198 15.1539C46.2214 15.3144 46.2722 15.5054 46.2722 15.7271C46.2722 15.9488 46.2214 16.1399 46.1198 16.3003C46.0181 16.4578 45.873 16.5788 45.6843 16.6634C45.4955 16.748 45.2676 16.7903 45.0006 16.7903H44.0512L44.2472 16.589V17.7223H43.8117ZM45.8498 17.7223L45.0746 16.6109H45.5406L46.3244 17.7223H45.8498ZM44.2472 16.6328L44.0512 16.4184H44.9875C45.2662 16.4184 45.4767 16.3586 45.619 16.2391C45.7642 16.1165 45.8367 15.9459 45.8367 15.7271C45.8367 15.5083 45.7642 15.3392 45.619 15.2195C45.4767 15.1 45.2662 15.0402 44.9875 15.0402H44.0512L44.2472 14.8214V16.6328Z" fill="white"/>
<path d="M47.1177 17.7223V14.6595H47.5532V17.7223H47.1177Z" fill="white"/>
<path d="M48.0259 17.7223L49.4064 14.6595H49.8376L51.2224 17.7223H50.7652L49.5327 14.9045H49.7069L48.4744 17.7223H48.0259ZM48.6138 16.9566L48.7314 16.6066H50.4472L50.5735 16.9566H48.6138Z" fill="white"/>
<path d="M3.22983 22.4829V19.4201H4.51452C4.83969 19.4201 5.12566 19.4843 5.37244 19.6127C5.62212 19.741 5.81519 19.9203 5.95164 20.1508C6.091 20.3812 6.16068 20.6482 6.16068 20.9515C6.16068 21.2549 6.091 21.5218 5.95164 21.7522C5.81519 21.9826 5.62212 22.162 5.37244 22.2904C5.12566 22.4187 4.83969 22.4829 4.51452 22.4829H3.22983ZM3.66532 22.1022H4.48839C4.74098 22.1022 4.95873 22.0541 5.14163 21.9578C5.32744 21.8616 5.47115 21.7274 5.57276 21.5553C5.67437 21.3803 5.72518 21.179 5.72518 20.9515C5.72518 20.7211 5.67437 20.5198 5.57276 20.3477C5.47115 20.1756 5.32744 20.0414 5.14163 19.9452C4.95873 19.8489 4.74098 19.8007 4.48839 19.8007H3.66532V22.1022Z" fill="white"/>
<path d="M8.20391 22.5179C7.9716 22.5179 7.75532 22.4785 7.55499 22.3997C7.35757 22.321 7.18628 22.2116 7.04112 22.0716C6.89595 21.9286 6.78272 21.7624 6.70144 21.5728C6.62014 21.3832 6.5795 21.1761 6.5795 20.9515C6.5795 20.7269 6.62014 20.5198 6.70144 20.3302C6.78272 20.1406 6.89595 19.9757 7.04112 19.8357C7.18628 19.6928 7.35757 19.582 7.55499 19.5033C7.75242 19.4245 7.96868 19.3851 8.20391 19.3851C8.43614 19.3851 8.64954 19.4245 8.84404 19.5033C9.04145 19.5791 9.21279 19.6885 9.3579 19.8314C9.506 19.9714 9.6192 20.1362 9.69758 20.3258C9.77888 20.5154 9.81953 20.724 9.81953 20.9515C9.81953 21.179 9.77888 21.3875 9.69758 21.5772C9.6192 21.7667 9.506 21.9331 9.3579 22.076C9.21279 22.216 9.04145 22.3253 8.84404 22.4041C8.64954 22.4799 8.43614 22.5179 8.20391 22.5179ZM8.20391 22.1285C8.37225 22.1285 8.5276 22.0993 8.66987 22.041C8.81497 21.9826 8.93983 21.901 9.04437 21.7959C9.15182 21.688 9.23453 21.5625 9.29259 21.4196C9.35356 21.2767 9.38405 21.1206 9.38405 20.9515C9.38405 20.7823 9.35356 20.6263 9.29259 20.4833C9.23453 20.3404 9.15182 20.2165 9.04437 20.1114C8.93983 20.0035 8.81497 19.9203 8.66987 19.862C8.5276 19.8036 8.37225 19.7745 8.20391 19.7745C8.03257 19.7745 7.87436 19.8036 7.72919 19.862C7.58693 19.9203 7.46209 20.0035 7.35467 20.1114C7.24725 20.2165 7.16306 20.3404 7.10208 20.4833C7.04402 20.6263 7.01499 20.7823 7.01499 20.9515C7.01499 21.1206 7.04402 21.2767 7.10208 21.4196C7.16306 21.5625 7.24725 21.688 7.35467 21.7959C7.46209 21.901 7.58693 21.9826 7.72919 22.041C7.87436 22.0993 8.03257 22.1285 8.20391 22.1285Z" fill="white"/>
<path d="M11.7451 22.4829V19.4201H13.0647C13.3376 19.4201 13.5727 19.4653 13.7701 19.5558C13.9675 19.6433 14.12 19.7701 14.2274 19.9364C14.3349 20.1026 14.3885 20.3011 14.3885 20.5315C14.3885 20.759 14.3349 20.9558 14.2274 21.1222C14.12 21.2884 13.9675 21.4167 13.7701 21.5071C13.5727 21.5947 13.3376 21.6384 13.0647 21.6384H12.1371L12.4506 21.319V22.4829H11.7451ZM12.4506 21.3978L12.1371 21.0609H13.0255C13.2432 21.0609 13.4058 21.0142 13.5132 20.9209C13.6206 20.8275 13.6743 20.6977 13.6743 20.5315C13.6743 20.3622 13.6206 20.231 13.5132 20.1377C13.4058 20.0444 13.2432 19.9977 13.0255 19.9977H12.1371L12.4506 19.6607V21.3978Z" fill="white"/>
<path d="M14.83 22.4829V19.4201H15.5355V21.9053H16.9094V22.4829H14.83Z" fill="white"/>
<path d="M17.0746 22.4829L18.4333 19.4201H19.1301L20.4932 22.4829H19.7528L18.638 19.7789H18.9167L17.7975 22.4829H17.0746ZM17.754 21.8266L17.9412 21.2884H19.509L19.7006 21.8266H17.754Z" fill="white"/>
<path d="M20.9663 22.4829V19.4201H21.5499L23.3485 21.6253H23.0654V19.4201H23.7621V22.4829H23.183L21.38 20.2777H21.6631V22.4829H20.9663Z" fill="white"/>
<path d="M25.1995 20.6539H26.6671V21.2052H25.1995V20.6539ZM25.2518 21.9141H26.911V22.4829H24.5506V19.4201H26.8544V19.9889H25.2518V21.9141Z" fill="white"/>
<path d="M28.3008 22.5354C28.0946 22.5354 27.9045 22.4974 27.7303 22.4216C27.5589 22.3429 27.4182 22.232 27.3078 22.0891L27.6998 21.6165C27.784 21.7274 27.8725 21.812 27.9654 21.8703C28.0583 21.9257 28.1585 21.9535 28.2659 21.9535C28.5533 21.9535 28.697 21.7843 28.697 21.4459V19.9889H27.6257V19.4201H29.3982V21.4065C29.3982 21.7857 29.3052 22.0686 29.1195 22.2554C28.9337 22.442 28.6608 22.5354 28.3008 22.5354Z" fill="white"/>
<path d="M29.7477 22.4829L31.1064 19.4201H31.8032L33.1662 22.4829H32.4259L31.311 19.7789H31.5897L30.4705 22.4829H29.7477ZM30.427 21.8266L30.6143 21.2884H32.182L32.3737 21.8266H30.427Z" fill="white"/>
<path d="M33.4825 22.4829V19.4201H34.0661L35.3638 21.5815H35.0546L36.3306 19.4201H36.9098L36.9185 22.4829H36.2565L36.2522 20.4396H36.3741L35.3551 22.1591H35.0372L33.9963 20.4396H34.1444V22.4829H33.4825Z" fill="white"/>
<path d="M38.2763 20.6539H39.7439V21.2052H38.2763V20.6539ZM38.3286 21.9141H39.9878V22.4829H37.6274V19.4201H39.9312V19.9889H38.3286V21.9141Z" fill="white"/>
<path d="M40.7004 22.4829V19.4201H41.284L43.0826 21.6253H42.7995V19.4201H43.4963V22.4829H42.9171L41.1142 20.2777H41.3972V22.4829H40.7004Z" fill="white"/>
<path d="M44.9375 22.4829V19.9977H43.962V19.4201H46.6185V19.9977H45.643V22.4829H44.9375Z" fill="white"/>
<path d="M48.4362 22.5354C48.1953 22.5354 47.9717 22.496 47.7656 22.4173C47.5624 22.3384 47.3852 22.2276 47.2343 22.0847C47.0862 21.9418 46.9701 21.7741 46.8859 21.5815C46.8046 21.389 46.764 21.179 46.764 20.9515C46.764 20.724 46.8046 20.5139 46.8859 20.3214C46.9701 20.129 47.0877 19.9612 47.2386 19.8183C47.3896 19.6754 47.5667 19.5645 47.7699 19.4857C47.9732 19.407 48.1938 19.3676 48.4319 19.3676C48.6729 19.3676 48.8935 19.407 49.0939 19.4857C49.297 19.5645 49.4727 19.6754 49.6208 19.8183C49.7717 19.9612 49.8893 20.129 49.9735 20.3214C50.0577 20.511 50.0998 20.7211 50.0998 20.9515C50.0998 21.179 50.0577 21.3905 49.9735 21.586C49.8893 21.7784 49.7717 21.9462 49.6208 22.0891C49.4727 22.2291 49.297 22.3384 49.0939 22.4173C48.8935 22.496 48.6743 22.5354 48.4362 22.5354ZM48.4319 21.9316C48.5683 21.9316 48.6932 21.9082 48.8064 21.8616C48.9225 21.8149 49.0241 21.7478 49.1113 21.6603C49.1983 21.5728 49.2651 21.4693 49.3116 21.3497C49.3609 21.2301 49.3856 21.0973 49.3856 20.9515C49.3856 20.8056 49.3609 20.6729 49.3116 20.5533C49.2651 20.4338 49.1983 20.3302 49.1113 20.2427C49.0271 20.1552 48.9269 20.0881 48.8107 20.0414C48.6946 19.9947 48.5683 19.9714 48.4319 19.9714C48.2955 19.9714 48.1691 19.9947 48.053 20.0414C47.9398 20.0881 47.8396 20.1552 47.7525 20.2427C47.6654 20.3302 47.5972 20.4338 47.5478 20.5533C47.5014 20.6729 47.4782 20.8056 47.4782 20.9515C47.4782 21.0944 47.5014 21.2271 47.5478 21.3497C47.5972 21.4693 47.664 21.5728 47.7481 21.6603C47.8353 21.7478 47.9369 21.8149 48.053 21.8616C48.1691 21.9082 48.2955 21.9316 48.4319 21.9316Z" fill="white"/>
<path d="M36.379 26.808V25.8587H37.8879H37.9076V25.839V25.467V25.4473H37.8879H36.379V24.5461H38.0751H38.0948V24.5263V24.1457V24.1259H38.0751H35.9238H35.9041V24.1457V27.2084V27.2282H35.9238H38.1361H38.1558V27.2084V26.8277V26.808H38.1361H36.379ZM38.8215 27.2084V27.2282H38.8412H39.2768H39.2965V27.2084V26.3006H40.0301C40.2992 26.3006 40.53 26.258 40.7219 26.172C40.9137 26.0831 41.062 25.9582 41.1659 25.7971C41.2698 25.6331 41.3215 25.4381 41.3215 25.2133C41.3215 24.9884 41.2699 24.7936 41.166 24.6295C41.0621 24.4654 40.9138 24.3405 40.7219 24.2545C40.53 24.1685 40.2992 24.1259 40.0301 24.1259H38.8412H38.8215V24.1457V27.2084ZM40.0171 25.8804H39.2965V24.5461H40.0171C40.2934 24.5461 40.4986 24.6054 40.6359 24.7209C40.7757 24.836 40.8466 24.9994 40.8466 25.2133C40.8466 25.4272 40.7759 25.5903 40.6361 25.7055C40.4988 25.8209 40.2934 25.8804 40.0171 25.8804ZM41.9218 27.2084V27.2282H41.9415H44.0276H44.0352H44.0473H44.0657H44.5142H44.5271L44.5322 27.2164L44.862 26.4625H46.4571L46.7869 27.2164L46.792 27.2282H46.8049H47.2622H47.2927L47.2801 27.2002L45.8952 24.1375L45.89 24.1259H45.8773H45.4462H45.4334L45.4282 24.1375L44.0477 27.2003L44.0473 27.2013V26.8277V26.808H44.0276H42.3968V24.1457V24.1259H42.3771H41.9415H41.9218V24.1457V27.2084ZM45.6595 24.639L46.2867 26.073H45.0324L45.6595 24.639ZM47.6972 27.2084V27.2282H47.7169H48.1524H48.1721V27.2084V24.9824L49.9661 27.2208L49.972 27.2282H49.9814H50.3386H50.3583V27.2084V24.1457V24.1259H50.3386H49.903H49.8833V24.1457V26.3718L48.0894 24.1333L48.0835 24.1259H48.074H47.7169H47.6972V24.1457V27.2084Z" fill="white"/>
<path fill-rule="evenodd" clip-rule="evenodd" d="M71.2859 10.7354C74.1543 9.37548 77.0073 8.34299 79.8222 8.13738C79.8443 7.66268 79.8663 7.19193 79.8876 6.72516C77.0692 7.01054 74.2212 7.93066 71.3574 9.20038C71.3338 9.71098 71.3101 10.2227 71.2859 10.7354Z" fill="white"/>
<path fill-rule="evenodd" clip-rule="evenodd" d="M78.8485 4.45758C78.828 4.9025 78.8068 5.352 78.7863 5.80614C76.6389 6.14931 74.4773 6.81022 72.3061 7.67511L72.3751 6.18636C74.5421 5.40983 76.7001 4.831 78.8485 4.45758Z" fill="white"/>
<path fill-rule="evenodd" clip-rule="evenodd" d="M75.265 2.94235C76.2914 2.68685 77.3174 2.45242 78.3437 2.21344C78.34 2.6478 78.3363 3.08649 78.3326 3.52972C77.2896 3.74708 76.2461 3.99442 75.2027 4.28217L75.265 2.94235Z" fill="white"/>
<path fill-rule="evenodd" clip-rule="evenodd" d="M79.8537 9.2049C77.2213 9.35027 74.5525 10.2786 71.8687 11.537C71.845 12.045 71.8214 12.5547 71.7977 13.0661C74.4848 11.7447 77.1569 10.739 79.7867 10.653C79.8088 10.1664 79.8316 9.68363 79.8537 9.2049Z" fill="white"/>
<path fill-rule="evenodd" clip-rule="evenodd" d="M70.4745 16.3405C73.8113 14.5522 77.1366 13.0091 80.3807 13.2235C80.4044 12.722 80.4272 12.2235 80.4501 11.7281C77.2026 11.5877 73.8816 13.0333 70.5468 14.7784C70.5227 15.2986 70.4986 15.8193 70.4745 16.3405Z" fill="white"/>
<path fill-rule="evenodd" clip-rule="evenodd" d="M79.8994 15.7741C75.7411 15.5734 71.4368 18.5232 67.1692 20.6766L67.2424 19.0982C71.51 16.9405 75.8101 14.0852 79.9695 14.2569C79.9467 14.759 79.923 15.2648 79.8994 15.7741Z" fill="white"/>
<path fill-rule="evenodd" clip-rule="evenodd" d="M80.6769 16.9943C80.6533 17.5092 80.6296 18.0264 80.6052 18.5463C73.5137 17.5454 65.9637 26.4358 58.8718 25.44L59.1773 23.9378C66.2002 24.7244 73.6667 15.9394 80.6769 16.9943Z" fill="white"/>
<path fill-rule="evenodd" clip-rule="evenodd" d="M82.0177 20.006C81.9941 20.5291 81.9689 21.0523 81.9452 21.5754C77.941 20.0901 73.754 22.5482 69.5812 24.698C65.4279 26.9044 61.2887 28.8049 57.2821 27.8418L57.5856 26.3489C65.5255 28.6398 74.0965 17.3101 82.0177 20.006Z" fill="white"/>
<path fill-rule="evenodd" clip-rule="evenodd" d="M81.2543 22.5591C81.2299 23.0849 81.2055 23.6119 81.1811 24.1402C77.3374 23.2026 73.3416 25.5568 69.3659 27.4732C65.4 29.4715 61.4549 31.0346 57.6022 30.5979L57.9069 29.0979C61.6761 29.6481 65.5496 27.9389 69.4382 25.9068C73.4185 23.8926 77.4147 21.5408 81.2543 22.5591Z" fill="white"/>
<path fill-rule="evenodd" clip-rule="evenodd" d="M66.9959 34.7306C66.9734 35.2207 66.9506 35.7087 66.9281 36.1946C64.6472 36.8775 62.377 37.3221 60.106 37.7866L60.3829 36.4236C62.5794 36.0283 64.7823 35.4972 66.9959 34.7306Z" fill="white"/>
<path fill-rule="evenodd" clip-rule="evenodd" d="M80.2279 26.6947C76.5509 26.3798 72.7567 28.5898 68.9891 30.2289C65.1339 32.0215 61.3061 33.2174 57.5348 33.1975L57.8416 31.6883C61.5248 31.9044 65.2819 30.5325 69.0615 28.6711C72.8348 26.905 76.6307 24.6515 80.3027 25.0763L80.2279 26.6947Z" fill="white"/>
<path fill-rule="evenodd" clip-rule="evenodd" d="M75.1058 30.4221C72.7388 31.2316 70.3564 32.3831 67.9861 33.2692C64.9842 34.4463 62.0024 35.1977 59.0363 35.6093L59.3261 34.1821C62.2123 33.8869 65.1255 33.0114 68.0567 31.749C70.4312 30.7637 72.8182 29.5253 75.1856 28.7006L75.1058 30.4221Z" fill="white"/>
<path fill-rule="evenodd" clip-rule="evenodd" d="M114.896 17.2796V23.8396H117.405V15.6595L114.896 17.2796Z" fill="white"/>
<path fill-rule="evenodd" clip-rule="evenodd" d="M117.405 14.9274H114.896V16.5474L117.405 14.9274Z" fill="white"/>
<path fill-rule="evenodd" clip-rule="evenodd" d="M106.969 22.9629C106.239 22.2417 105.873 21.2188 105.873 19.8946V14.9547H108.382V19.8182C108.382 21.2443 108.944 21.9572 110.067 21.9572C111.183 21.9572 111.741 21.2443 111.741 19.8182V14.9547H114.211V19.8946C114.211 21.2188 113.846 22.2417 113.115 22.9629C112.384 23.6845 111.36 24.0452 110.042 24.0452C108.724 24.0452 107.7 23.6845 106.969 22.9629Z" fill="white"/>
<path fill-rule="evenodd" clip-rule="evenodd" d="M103.137 22.1354H99.3862L98.6891 23.867H96.1288L100.045 14.9547H102.516L106.444 23.867H103.833L103.137 22.1354ZM102.401 20.2766L101.261 17.4246L100.12 20.2766H102.401Z" fill="white"/>
<path fill-rule="evenodd" clip-rule="evenodd" d="M93.1519 14.9547H95.6601V23.867H93.1519V14.9547Z" fill="white"/>
<path fill-rule="evenodd" clip-rule="evenodd" d="M90.8453 15.3557C91.4369 15.6232 91.8923 16.005 92.2137 16.5015C92.5351 16.9981 92.695 17.5818 92.695 18.2523C92.695 18.9228 92.5351 19.5043 92.2137 19.9965C91.8923 20.4889 91.4369 20.8685 90.8453 21.1361C90.2537 21.4033 89.5574 21.5371 88.7546 21.5371H87.209V23.867H84.7V14.9547H88.7546C89.5574 14.9547 90.2537 15.0884 90.8453 15.3557ZM89.7685 19.2134C90.03 18.9887 90.1608 18.6682 90.1608 18.2523C90.1608 17.8365 90.03 17.5138 89.7685 17.2846C89.5061 17.0555 89.1178 16.9408 88.6026 16.9408H87.209V19.5509H88.6026C89.1178 19.5509 89.5061 19.4386 89.7685 19.2134Z" fill="white"/>
<path fill-rule="evenodd" clip-rule="evenodd" d="M117.568 11.3608C117.425 11.1209 117.228 10.933 116.978 10.7969C116.728 10.6609 116.447 10.593 116.136 10.593C115.824 10.593 115.543 10.6609 115.293 10.7969C115.042 10.933 114.845 11.1217 114.703 11.3629C114.56 11.6043 114.489 11.8742 114.489 12.1727C114.489 12.471 114.56 12.7409 114.703 12.9823C114.845 13.2236 115.042 13.4122 115.293 13.5483C115.543 13.6843 115.824 13.7524 116.136 13.7524C116.447 13.7524 116.728 13.6843 116.978 13.5483C117.228 13.4122 117.425 13.2243 117.568 12.9843C117.71 12.7447 117.782 12.4739 117.782 12.1727C117.782 11.8713 117.71 11.6008 117.568 11.3608ZM117.07 12.7277C116.977 12.893 116.849 13.0218 116.685 13.1138C116.522 13.2062 116.34 13.2522 116.136 13.2522C115.932 13.2522 115.748 13.2062 115.585 13.1138C115.422 13.0218 115.294 12.893 115.2 12.7277C115.108 12.5625 115.061 12.3774 115.061 12.1727C115.061 11.9678 115.108 11.7828 115.2 11.6175C115.294 11.4523 115.422 11.3235 115.585 11.2314C115.748 11.1392 115.932 11.093 116.136 11.093C116.34 11.093 116.522 11.1392 116.685 11.2314C116.849 11.3235 116.977 11.4523 117.07 11.6175C117.163 11.7828 117.21 11.9678 117.21 12.1727C117.21 12.3774 117.163 12.5625 117.07 12.7277Z" fill="white"/>
<path fill-rule="evenodd" clip-rule="evenodd" d="M113.13 10.8276C112.877 10.7004 112.588 10.6367 112.261 10.6367H110.925V13.7084H112.261C112.588 13.7084 112.877 13.6449 113.13 13.5177C113.384 13.3903 113.58 13.2104 113.72 12.9778C113.86 12.7453 113.93 12.4768 113.93 12.1726C113.93 11.8683 113.86 11.5999 113.72 11.3674C113.58 11.1348 113.384 10.9548 113.13 10.8276ZM113.22 12.7277C113.128 12.8871 112.997 13.0101 112.827 13.0963C112.656 13.1826 112.459 13.2257 112.235 13.2257H111.493V11.1194H112.235C112.459 11.1194 112.656 11.1626 112.827 11.2489C112.997 11.3352 113.128 11.4581 113.22 11.6174C113.311 11.7771 113.357 11.9619 113.357 12.1726C113.357 12.3833 113.311 12.5683 113.22 12.7277Z" fill="white"/>
<path fill-rule="evenodd" clip-rule="evenodd" d="M107.964 10.797C107.714 10.6609 107.432 10.5929 107.121 10.5929C106.809 10.5929 106.528 10.6609 106.278 10.797C106.028 10.9331 105.831 11.1217 105.688 11.3629C105.546 11.6043 105.474 11.8742 105.474 12.1727C105.474 12.4711 105.546 12.741 105.688 12.9822C105.831 13.2237 106.028 13.4122 106.278 13.5482C106.528 13.6843 106.809 13.7525 107.121 13.7525C107.432 13.7525 107.714 13.6843 107.964 13.5482C108.214 13.4122 108.411 13.2243 108.553 12.9844C108.696 12.7446 108.768 12.4739 108.768 12.1727C108.768 11.8712 108.696 11.6007 108.553 11.3609C108.411 11.121 108.214 10.9331 107.964 10.797ZM108.055 12.7278C107.963 12.8931 107.834 13.0217 107.671 13.1138C107.508 13.2061 107.324 13.2521 107.121 13.2521C106.917 13.2521 106.734 13.2061 106.571 13.1138C106.407 13.0217 106.28 12.8931 106.186 12.7278C106.093 12.5625 106.047 12.3773 106.047 12.1727C106.047 11.9679 106.093 11.7829 106.186 11.6175C106.28 11.4523 106.407 11.3235 106.571 11.2315C106.734 11.1393 106.917 11.0931 107.121 11.0931C107.324 11.0931 107.508 11.1393 107.671 11.2315C107.834 11.3235 107.963 11.4523 108.055 11.6175C108.148 11.7829 108.196 11.9679 108.196 12.1727C108.196 12.3773 108.148 12.5625 108.055 12.7278Z" fill="white"/>
<path fill-rule="evenodd" clip-rule="evenodd" d="M104.133 12.7169L102.448 10.6368H101.98V13.7086H102.544V11.6285L104.229 13.7086H104.697V10.6368H104.133V12.7169Z" fill="white"/>
<path fill-rule="evenodd" clip-rule="evenodd" d="M101.005 12.3261C101.117 12.1594 101.173 11.9605 101.173 11.7295C101.173 11.5041 101.12 11.3097 101.015 11.1457C100.911 10.982 100.76 10.8563 100.564 10.7684C100.367 10.6807 100.136 10.6367 99.8715 10.6367H98.6134V13.7084H99.1814V12.8133H99.8715C99.9242 12.8133 99.9628 12.8118 99.9888 12.8088L100.614 13.7084H101.225L100.522 12.6992C100.732 12.6173 100.892 12.4929 101.005 12.3261ZM99.8447 12.3436H99.1814V11.1194H99.8447C100.093 11.1194 100.28 11.1722 100.409 11.2774C100.536 11.3827 100.601 11.5334 100.601 11.7295C100.601 11.9254 100.536 12.0769 100.409 12.1837C100.28 12.2904 100.093 12.3436 99.8447 12.3436Z" fill="white"/>
<path fill-rule="evenodd" clip-rule="evenodd" d="M96.0808 12.3833H97.5571V11.9137H96.0808V11.1151H97.7445V10.6367H95.5128V13.7084H97.8052V13.2301H96.0808V12.3833Z" fill="white"/>
<path fill-rule="evenodd" clip-rule="evenodd" d="M93.4205 13.0064L92.4027 10.6367H91.7875L93.1235 13.7084H93.682L95.0141 10.6367H94.447L93.4205 13.0064Z" fill="white"/>
<path fill-rule="evenodd" clip-rule="evenodd" d="M90.7343 10.797C90.4838 10.6609 90.2033 10.5929 89.8914 10.5929C89.5802 10.5929 89.299 10.6609 89.0485 10.797C88.7979 10.9331 88.6018 11.1217 88.4592 11.3629C88.3166 11.6043 88.2449 11.8742 88.2449 12.1727C88.2449 12.4711 88.3166 12.741 88.4592 12.9822C88.6018 13.2237 88.7979 13.4122 89.0485 13.5482C89.299 13.6843 89.5802 13.7525 89.8914 13.7525C90.2033 13.7525 90.4838 13.6843 90.7343 13.5482C90.9848 13.4122 91.1817 13.2243 91.3243 12.9844C91.4669 12.7446 91.5386 12.4739 91.5386 12.1727C91.5386 11.8712 91.4669 11.6007 91.3243 11.3609C91.1817 11.121 90.9848 10.9331 90.7343 10.797ZM90.8264 12.7278C90.7335 12.8931 90.6051 13.0217 90.442 13.1138C90.2789 13.2061 90.0954 13.2521 89.8914 13.2521C89.6881 13.2521 89.5046 13.2061 89.3415 13.1138C89.1784 13.0217 89.05 12.8931 88.9571 12.7278C88.8633 12.5625 88.8176 12.3773 88.8176 12.1727C88.8176 11.9679 88.8633 11.7829 88.9571 11.6175C89.05 11.4523 89.1784 11.3235 89.3415 11.2315C89.5046 11.1393 89.6881 11.0931 89.8914 11.0931C90.0954 11.0931 90.2789 11.1393 90.442 11.2315C90.6051 11.3235 90.7335 11.4523 90.8264 11.6175C90.9194 11.7829 90.9659 11.9679 90.9659 12.1727C90.9659 12.3773 90.9194 12.5625 90.8264 12.7278Z" fill="white"/>
<path fill-rule="evenodd" clip-rule="evenodd" d="M85.806 11.2291C85.9738 11.1385 86.1652 11.093 86.3803 11.093C86.7096 11.093 86.99 11.2101 87.2232 11.4443L87.5816 11.093C87.4391 10.9293 87.2626 10.805 87.053 10.7201C86.8435 10.6352 86.6103 10.593 86.3543 10.593C86.04 10.593 85.7564 10.6609 85.5043 10.7969C85.253 10.933 85.0553 11.1209 84.9127 11.3608C84.7701 11.6008 84.6992 11.8713 84.6992 12.1727C84.6992 12.4739 84.7701 12.7447 84.9127 12.9843C85.0553 13.2243 85.2522 13.4122 85.5027 13.5483C85.7532 13.6843 86.0337 13.7524 86.3456 13.7524C86.5662 13.7524 86.7821 13.7186 86.9916 13.6515C87.2012 13.5842 87.3847 13.4876 87.5423 13.3618V12.1376H87.005V13.0942C86.8246 13.1995 86.6151 13.2522 86.3756 13.2522C86.1637 13.2522 85.9738 13.2053 85.806 13.1118C85.6382 13.018 85.5075 12.8894 85.4129 12.7254C85.3184 12.5617 85.2711 12.3774 85.2711 12.1727C85.2711 11.9619 85.3184 11.7748 85.4129 11.6109C85.5075 11.4472 85.6382 11.3199 85.806 11.2291Z" fill="white"/>
<path fill-rule="evenodd" clip-rule="evenodd" d="M112.685 30.7932C112.647 30.7556 112.628 30.7081 112.628 30.6505C112.628 30.5948 112.647 30.5481 112.685 30.5105C112.723 30.473 112.769 30.4543 112.823 30.4543C112.877 30.4543 112.922 30.4725 112.958 30.5091C112.994 30.5457 113.012 30.5929 113.012 30.6505C113.012 30.7081 112.994 30.7556 112.956 30.7932C112.919 30.8307 112.874 30.8493 112.823 30.8493C112.769 30.8493 112.723 30.8307 112.685 30.7932Z" fill="white"/>
<path fill-rule="evenodd" clip-rule="evenodd" d="M110.808 30.7312C110.64 30.641 110.509 30.5164 110.415 30.3578C110.32 30.1992 110.273 30.021 110.273 29.8228C110.273 29.6248 110.32 29.4466 110.415 29.288C110.509 29.1295 110.64 29.0049 110.808 28.9144C110.976 28.8241 111.163 28.7791 111.372 28.7791C111.581 28.7791 111.768 28.8241 111.934 28.9144C112.101 29.0049 112.232 29.1295 112.328 29.288C112.423 29.4466 112.472 29.6248 112.472 29.8228C112.472 30.021 112.423 30.1992 112.328 30.3578C112.232 30.5164 112.101 30.641 111.934 30.7312C111.768 30.8217 111.581 30.8667 111.372 30.8667C111.163 30.8667 110.976 30.8217 110.808 30.7312ZM111.693 30.3866C111.789 30.3319 111.864 30.2554 111.919 30.1573C111.973 30.0593 112.001 29.9479 112.001 29.8228C112.001 29.6979 111.973 29.5864 111.919 29.4883C111.864 29.3903 111.789 29.3139 111.693 29.259C111.597 29.2043 111.491 29.1769 111.372 29.1769C111.253 29.1769 111.146 29.2043 111.051 29.259C110.954 29.3139 110.88 29.3903 110.825 29.4883C110.771 29.5864 110.743 29.6979 110.743 29.8228C110.743 29.9479 110.771 30.0593 110.825 30.1573C110.88 30.2554 110.954 30.3319 111.051 30.3866C111.146 30.4413 111.253 30.4687 111.372 30.4687C111.491 30.4687 111.597 30.4413 111.693 30.3866Z" fill="white"/>
<path fill-rule="evenodd" clip-rule="evenodd" d="M109.584 30.8322L109.196 30.2698H109.173H108.769V30.8322H108.304V28.8134H109.173C109.351 28.8134 109.506 28.8434 109.637 28.903C109.768 28.9625 109.869 29.047 109.94 29.1567C110.01 29.2663 110.046 29.3959 110.046 29.546C110.046 29.6959 110.01 29.8254 109.938 29.9338C109.867 30.0425 109.765 30.1256 109.633 30.1832L110.083 30.8322H109.584ZM109.466 29.285C109.393 29.2245 109.288 29.1942 109.147 29.1942H108.769V29.8978H109.147C109.288 29.8978 109.393 29.8672 109.466 29.8054C109.539 29.744 109.575 29.6575 109.575 29.546C109.575 29.4325 109.539 29.3456 109.466 29.285Z" fill="white"/>
<path fill-rule="evenodd" clip-rule="evenodd" d="M106.267 30.6273C106.107 30.4679 106.027 30.2401 106.027 29.9439V28.8134H106.492V29.9265C106.492 30.2881 106.641 30.4687 106.939 30.4687C107.085 30.4687 107.196 30.4251 107.272 30.3377C107.349 30.25 107.387 30.1133 107.387 29.9265V28.8134H107.847V29.9439C107.847 30.2401 107.766 30.4679 107.606 30.6273C107.447 30.787 107.224 30.8668 106.937 30.8668C106.649 30.8668 106.426 30.787 106.267 30.6273Z" fill="white"/>
<path fill-rule="evenodd" clip-rule="evenodd" d="M104.697 29.1943H104.054V28.8134H105.805V29.1943H105.162V30.8322H104.697V29.1943Z" fill="white"/>
<path fill-rule="evenodd" clip-rule="evenodd" d="M102.251 30.6273C102.091 30.4679 102.012 30.2401 102.012 29.9439V28.8134H102.477V29.9265C102.477 30.2881 102.626 30.4687 102.925 30.4687C103.07 30.4687 103.181 30.4251 103.257 30.3377C103.334 30.25 103.372 30.1133 103.372 29.9265V28.8134H103.832V29.9439C103.832 30.2401 103.751 30.4679 103.591 30.6273C103.431 30.787 103.208 30.8668 102.922 30.8668C102.635 30.8668 102.411 30.787 102.251 30.6273Z" fill="white"/>
<path fill-rule="evenodd" clip-rule="evenodd" d="M100.67 29.1885V29.722H101.6V30.0967H100.67V30.8322H100.205V28.8134H101.724V29.1885H100.67Z" fill="white"/>
<path fill-rule="evenodd" clip-rule="evenodd" d="M98.6182 30.8322L98.615 29.3614L97.8887 30.5871H97.7572L97.0308 29.37V30.8322H96.7551V28.8134H96.9907L97.8288 30.2323L98.6552 28.8134H98.8907L98.8931 30.8322H98.6182Z" fill="white"/>
<path fill-rule="evenodd" clip-rule="evenodd" d="M96.3675 30.5812V30.8321H94.9102V28.8134H96.3273V29.0644H95.1969V29.6844H96.2044V29.9294H95.1969V30.5812H96.3675Z" fill="white"/>
<path fill-rule="evenodd" clip-rule="evenodd" d="M93.6498 29.0644H92.9612V28.8134H94.6226V29.0644H93.9341V30.8321H93.6498V29.0644Z" fill="white"/>
<path fill-rule="evenodd" clip-rule="evenodd" d="M91.589 28.8134H91.8765V30.8322H91.589V28.8134Z" fill="white"/>
<path fill-rule="evenodd" clip-rule="evenodd" d="M89.5723 30.6246C89.4234 30.4706 89.3486 30.2495 89.3486 29.9612V28.8134H89.6353V29.9497C89.6353 30.3823 89.8236 30.5985 90.2009 30.5985C90.3845 30.5985 90.5255 30.5452 90.6224 30.4385C90.7201 30.3318 90.7689 30.1689 90.7689 29.9497V28.8134H91.0478V29.9612C91.0478 30.2515 90.9729 30.4731 90.824 30.6258C90.6744 30.7789 90.4656 30.8552 90.1978 30.8552C89.9299 30.8552 89.7212 30.7783 89.5723 30.6246Z" fill="white"/>
<path fill-rule="evenodd" clip-rule="evenodd" d="M89.072 31.0166C89.0067 31.0936 88.931 31.1522 88.8452 31.1926C88.7593 31.2329 88.6664 31.2533 88.5671 31.2533C88.4403 31.2533 88.3221 31.2229 88.2126 31.1624C88.1023 31.1019 87.9771 30.9985 87.8353 30.8522C87.6454 30.8426 87.4753 30.7917 87.3224 30.6994C87.1704 30.6072 87.0522 30.4847 86.9672 30.3318C86.8813 30.1791 86.8387 30.0093 86.8387 29.8229C86.8387 29.6287 86.8852 29.4527 86.9782 29.295C87.0711 29.1374 87.1988 29.0139 87.361 28.9245C87.5241 28.8351 87.7069 28.7904 87.9093 28.7904C88.1102 28.7904 88.2922 28.8351 88.4552 28.9245C88.6175 29.0139 88.7451 29.1369 88.8365 29.2936C88.9287 29.4505 88.9744 29.6268 88.9744 29.8229C88.9744 29.9882 88.9413 30.14 88.8751 30.2784C88.8097 30.4169 88.7168 30.5333 88.597 30.6273C88.4773 30.7217 88.3402 30.787 88.185 30.8234C88.252 30.8946 88.3166 30.946 88.3788 30.9777C88.4411 31.0095 88.5049 31.0253 88.5695 31.0253C88.7112 31.0253 88.8334 30.9677 88.9373 30.8522L89.072 31.0166ZM87.2279 30.2193C87.2957 30.3376 87.3894 30.4303 87.5091 30.4977C87.6289 30.565 87.762 30.5985 87.9093 30.5985C88.055 30.5985 88.1866 30.565 88.3056 30.4977C88.4245 30.4303 88.5175 30.3376 88.5852 30.2193C88.6537 30.1011 88.6876 29.9689 88.6876 29.8229C88.6876 29.6768 88.6537 29.5444 88.5852 29.4263C88.5175 29.3081 88.4245 29.2153 88.3056 29.148C88.1866 29.0808 88.055 29.047 87.9093 29.047C87.762 29.047 87.6289 29.0808 87.5091 29.148C87.3894 29.2153 87.2957 29.3081 87.2279 29.4263C87.1602 29.5444 87.1263 29.6768 87.1263 29.8229C87.1263 29.9689 87.1602 30.1011 87.2279 30.2193Z" fill="white"/>
<path fill-rule="evenodd" clip-rule="evenodd" d="M86.2802 30.3275H85.2128L84.9915 30.8321H84.696L85.6059 28.8134H85.8895L86.8025 30.8321H86.5008L86.2802 30.3275ZM86.1794 30.0967L85.7469 29.1076L85.3129 30.0967H86.1794Z" fill="white"/>
<path fill-rule="evenodd" clip-rule="evenodd" d="M117.031 27.4551C116.993 27.4175 116.975 27.37 116.975 27.3125C116.975 27.2567 116.993 27.21 117.031 27.1725C117.07 27.135 117.116 27.1163 117.17 27.1163C117.223 27.1163 117.268 27.1345 117.305 27.1711C117.341 27.2076 117.359 27.2548 117.359 27.3125C117.359 27.37 117.34 27.4175 117.303 27.4551C117.266 27.4926 117.221 27.5113 117.17 27.5113C117.116 27.5113 117.07 27.4926 117.031 27.4551Z" fill="white"/>
<path fill-rule="evenodd" clip-rule="evenodd" d="M115.155 27.393C114.987 27.3027 114.855 27.1783 114.761 27.0197C114.666 26.8611 114.619 26.6829 114.619 26.4847C114.619 26.2868 114.666 26.1085 114.761 25.9499C114.855 25.7912 114.987 25.6669 115.155 25.5763C115.322 25.486 115.51 25.4409 115.718 25.4409C115.927 25.4409 116.114 25.486 116.281 25.5763C116.448 25.6669 116.578 25.7912 116.674 25.9499C116.77 26.1085 116.818 26.2868 116.818 26.4847C116.818 26.6829 116.77 26.8611 116.674 27.0197C116.578 27.1783 116.448 27.3027 116.281 27.393C116.114 27.4835 115.927 27.5287 115.718 27.5287C115.51 27.5287 115.322 27.4835 115.155 27.393ZM116.039 27.0485C116.135 26.9937 116.21 26.9173 116.265 26.8192C116.319 26.7213 116.347 26.6097 116.347 26.4847C116.347 26.3598 116.319 26.2482 116.265 26.1502C116.21 26.0522 116.135 25.9758 116.039 25.9209C115.944 25.8662 115.837 25.8388 115.718 25.8388C115.599 25.8388 115.493 25.8662 115.397 25.9209C115.301 25.9758 115.226 26.0522 115.171 26.1502C115.117 26.2482 115.089 26.3598 115.089 26.4847C115.089 26.6097 115.117 26.7213 115.171 26.8192C115.226 26.9173 115.301 26.9937 115.397 27.0485C115.493 27.1032 115.599 27.1307 115.718 27.1307C115.837 27.1307 115.944 27.1032 116.039 27.0485Z" fill="white"/>
<path fill-rule="evenodd" clip-rule="evenodd" d="M114.267 25.4754V27.4941H113.801V26.6664H112.889V27.4941H112.424V25.4754H112.889V26.2712H113.801V25.4754H114.267Z" fill="white"/>
<path fill-rule="evenodd" clip-rule="evenodd" d="M110.716 25.4754H111.181V27.1134H112.188V27.4941H110.716V25.4754Z" fill="white"/>
<path fill-rule="evenodd" clip-rule="evenodd" d="M109.84 27.0616H108.907L108.729 27.4941H108.252L109.148 25.4754H109.607L110.505 27.4941H110.018L109.84 27.0616ZM109.693 26.7069L109.374 25.9339L109.056 26.7069H109.693Z" fill="white"/>
<path fill-rule="evenodd" clip-rule="evenodd" d="M108.087 26.6275C108.152 26.7132 108.184 26.8183 108.184 26.9432C108.184 27.1202 108.116 27.2561 107.979 27.3513C107.843 27.4464 107.643 27.494 107.381 27.494H106.342V25.4753H107.323C107.569 25.4753 107.756 25.5225 107.888 25.6168C108.019 25.711 108.084 25.8388 108.084 26.0002C108.084 26.0983 108.06 26.1859 108.014 26.2628C107.967 26.3396 107.902 26.4001 107.818 26.4444C107.932 26.481 108.022 26.542 108.087 26.6275ZM106.804 25.8273V26.303H107.266C107.381 26.303 107.468 26.2829 107.528 26.2425C107.587 26.2022 107.617 26.1426 107.617 26.0637C107.617 25.9851 107.587 25.9258 107.528 25.8864C107.468 25.847 107.381 25.8273 107.266 25.8273H106.804ZM107.624 27.0817C107.686 27.0413 107.717 26.9787 107.717 26.8942C107.717 26.727 107.593 26.6434 107.347 26.6434H106.804V27.1422H107.347C107.469 27.1422 107.562 27.1221 107.624 27.0817Z" fill="white"/>
<path fill-rule="evenodd" clip-rule="evenodd" d="M105.465 27.0616H104.533L104.355 27.4941H103.879L104.774 25.4754H105.233L106.132 27.4941H105.643L105.465 27.0616ZM105.32 26.7069L105.001 25.9339L104.682 26.7069H105.32Z" fill="white"/>
<path fill-rule="evenodd" clip-rule="evenodd" d="M103.24 27.4941L102.852 26.9318H102.83H102.425V27.4941H101.959V25.4754H102.83C103.007 25.4754 103.161 25.5053 103.293 25.565C103.423 25.6244 103.524 25.709 103.595 25.8187C103.666 25.9281 103.702 26.0579 103.702 26.2078C103.702 26.3579 103.666 26.4871 103.594 26.5957C103.522 26.7044 103.42 26.7875 103.288 26.8451L103.739 27.4941H103.24ZM103.122 25.9469C103.049 25.8865 102.943 25.8562 102.804 25.8562H102.425V26.5597H102.804C102.943 26.5597 103.049 26.5291 103.122 26.4674C103.194 26.4059 103.23 26.3194 103.23 26.2078C103.23 26.0945 103.194 26.0075 103.122 25.9469Z" fill="white"/>
<path fill-rule="evenodd" clip-rule="evenodd" d="M100.621 25.8562H99.9786V25.4754H101.729V25.8562H101.086V27.4941H100.621V25.8562Z" fill="white"/>
<path fill-rule="evenodd" clip-rule="evenodd" d="M98.6182 27.4941L98.615 26.0232L97.8887 27.249H97.7572L97.0308 26.032V27.4941H96.7551V25.4754H96.9907L97.8288 26.8943L98.6552 25.4754H98.8907L98.8931 27.4941H98.6182Z" fill="white"/>
<path fill-rule="evenodd" clip-rule="evenodd" d="M96.3675 27.2432V27.4941H94.9102V25.4754H96.3273V25.7264H95.1969V26.3463H96.2044V26.5914H95.1969V27.2432H96.3675Z" fill="white"/>
<path fill-rule="evenodd" clip-rule="evenodd" d="M93.6498 25.7264H92.9612V25.4754H94.6226V25.7264H93.9341V27.4941H93.6498V25.7264Z" fill="white"/>
<path fill-rule="evenodd" clip-rule="evenodd" d="M91.589 25.4754H91.8765V27.4941H91.589V25.4754Z" fill="white"/>
<path fill-rule="evenodd" clip-rule="evenodd" d="M89.5723 27.2865C89.4234 27.1326 89.3486 26.9115 89.3486 26.6231V25.4754H89.6353V26.6117C89.6353 27.0442 89.8236 27.2605 90.2009 27.2605C90.3845 27.2605 90.5255 27.2071 90.6224 27.1004C90.7201 26.9937 90.7689 26.8308 90.7689 26.6117V25.4754H91.0478V26.6231C91.0478 26.9134 90.9729 27.135 90.824 27.2878C90.6744 27.4408 90.4656 27.5171 90.1978 27.5171C89.9299 27.5171 89.7212 27.4403 89.5723 27.2865Z" fill="white"/>
<path fill-rule="evenodd" clip-rule="evenodd" d="M89.072 27.6786C89.0067 27.7556 88.931 27.8141 88.8452 27.8545C88.7593 27.8948 88.6664 27.9152 88.5671 27.9152C88.4403 27.9152 88.3221 27.8849 88.2126 27.8243C88.1023 27.7638 87.9771 27.6604 87.8353 27.5141C87.6454 27.5046 87.4753 27.4536 87.3224 27.3614C87.1704 27.2692 87.0522 27.1466 86.9672 26.9938C86.8813 26.841 86.8387 26.6713 86.8387 26.4848C86.8387 26.2907 86.8852 26.1147 86.9782 25.957C87.0711 25.7993 87.1988 25.6758 87.361 25.5865C87.5241 25.4971 87.7069 25.4523 87.9093 25.4523C88.1102 25.4523 88.2922 25.4971 88.4552 25.5865C88.6175 25.6758 88.7451 25.7989 88.8365 25.9555C88.9287 26.1124 88.9744 26.2887 88.9744 26.4848C88.9744 26.6501 88.9413 26.8021 88.8751 26.9404C88.8097 27.0788 88.7168 27.1953 88.597 27.2893C88.4773 27.3836 88.3402 27.4489 88.185 27.4854C88.252 27.5565 88.3166 27.6079 88.3788 27.6397C88.4411 27.6714 88.5049 27.6874 88.5695 27.6874C88.7112 27.6874 88.8334 27.6296 88.9373 27.5141L89.072 27.6786ZM87.2279 26.8813C87.2957 26.9996 87.3894 27.0924 87.5091 27.1596C87.6289 27.227 87.762 27.2604 87.9093 27.2604C88.055 27.2604 88.1866 27.227 88.3056 27.1596C88.4245 27.0924 88.5175 26.9996 88.5852 26.8813C88.6537 26.7631 88.6876 26.6308 88.6876 26.4848C88.6876 26.3388 88.6537 26.2064 88.5852 26.0882C88.5175 25.97 88.4245 25.8773 88.3056 25.81C88.1866 25.7427 88.055 25.709 87.9093 25.709C87.762 25.709 87.6289 25.7427 87.5091 25.81C87.3894 25.8773 87.2957 25.97 87.2279 26.0882C87.1602 26.2064 87.1263 26.3388 87.1263 26.4848C87.1263 26.6308 87.1602 26.7631 87.2279 26.8813Z" fill="white"/>
<path fill-rule="evenodd" clip-rule="evenodd" d="M86.2802 26.9895H85.2128L84.9915 27.4941H84.696L85.6059 25.4754H85.8895L86.8025 27.4941H86.5008L86.2802 26.9895ZM86.1794 26.7587L85.7469 25.7696L85.3129 26.7587H86.1794Z" fill="white"/>
</svg>
